<?xml version="1.0" encoding="utf-8" ?>
<svg xmlns="http://www.w3.org/2000/svg" xmlns:xlink="http://www.w3.org/1999/xlink" width="530" height="519">
	<path fill="#6FD5E9" fill-opacity="0.64313728" transform="scale(0.690104 0.675781)" d="M475.173 603.197L486.128 602.656C487.233 602.806 488.291 602.838 489.405 602.839C493.067 602.837 502.518 601.927 505.305 604.047L505.416 604.533L488.308 605.74C485.318 606.235 482.272 606.202 479.25 606.308C472.797 606.535 466.478 606.395 460.031 606.317C455.341 606.26 450.364 606.603 445.714 606.116C444.096 605.529 441.625 605.77 439.877 605.65L439.877 605.352L440.625 605.167C442.106 604.418 444.526 604.787 446.272 604.787C450.693 604.784 455.146 604.693 459.562 604.879C462.728 605.013 465.847 605.183 469.023 605.193C470.185 605.197 471.752 605.419 472.808 604.892L473.248 604.599C474.087 604.196 474.485 603.837 475.173 603.197ZM489.405 602.839C487.652 603.113 484.384 603.25 482.994 604.225C481.623 605.186 479.391 605.292 477.754 605.573C481.12 605.807 485.067 605.151 488.308 605.74L505.416 604.533L505.305 604.047C502.518 601.927 493.067 602.837 489.405 602.839Z"/>
	<path fill="#6ED5EB" fill-opacity="0.76862746" transform="scale(0.690104 0.675781)" d="M489.405 602.839C493.067 602.837 502.518 601.927 505.305 604.047L505.416 604.533L488.308 605.74C485.067 605.151 481.12 605.807 477.754 605.573C479.391 605.292 481.623 605.186 482.994 604.225C484.384 603.25 487.652 603.113 489.405 602.839Z"/>
	<path fill="#6ED5EB" fill-opacity="0.63137257" transform="scale(0.690104 0.675781)" d="M423.068 602.53C423.99 601.825 424.478 601.766 425.625 601.788L426 601.485L426.554 601.704C428.658 602.463 431.828 602.242 434.062 602.348C442.38 602.743 450.723 602.649 459.047 602.78C464.48 602.865 469.699 603.367 475.173 603.197C474.485 603.837 474.087 604.196 473.248 604.599L472.808 604.892C471.752 605.419 470.185 605.197 469.023 605.193C465.847 605.183 462.728 605.013 459.562 604.879C455.146 604.693 450.693 604.784 446.272 604.787C444.526 604.787 442.106 604.418 440.625 605.167L439.877 605.352L439.877 605.65C441.625 605.77 444.096 605.529 445.714 606.116L432.555 606.685L432.518 606.099C431.212 605.406 429.519 605.843 428.122 605.319C422.95 603.378 417.146 605.525 412.127 603.427L412.312 603.1L416.625 603.1C417.725 602.367 421.541 602.682 423.068 602.53Z"/>
	<path fill="#D1EBF1" fill-opacity="0.75686276" transform="scale(0.690104 0.675781)" d="M206.547 521.877L224.693 525.971C223.194 529.387 219.92 530.154 217.036 532.203C214.227 534.198 211.713 537.093 210.319 540.263C209.588 541.924 209.343 543.692 208.819 545.406C208.557 546.261 208.536 547.206 208.458 548.094C207.756 544.383 205.329 540.974 204.909 537.386C204.419 533.207 204.494 529.403 207.178 525.927L207.398 525.65L207.178 523.813L208.312 523.172L208.21 522.777L206.547 521.877Z"/>
	<defs>
		<linearGradient id="gradient_0" gradientUnits="userSpaceOnUse" x1="588.18799" y1="515.14801" x2="615.45898" y2="558.31">
			<stop offset="0" stop-color="#6FD5E9" stop-opacity="0.42352942"/>
			<stop offset="1" stop-color="#6FD6EC" stop-opacity="0.93725491"/>
		</linearGradient>
	</defs>
	<path fill="url(#gradient_0)" transform="scale(0.690104 0.675781)" d="M580.715 519.637C581.509 517.219 581.541 514.533 582.135 512.034L582.576 512.689L583.688 511.796C584.412 511.987 584.983 512.137 585.606 512.56L586.446 513.111L588.678 514.307C593.451 517.007 598.443 520.049 601.627 524.631L601.968 525.111C603.285 527.009 604.547 529.511 604.874 531.815C605.832 536.147 605.909 540.94 604.803 545.263C602.184 556.537 595.491 564.947 587.423 572.911C581.645 578.614 575.521 583.612 568.635 587.921C553.144 597.617 534.188 600.797 516.375 603.143C512.929 603.597 508.855 604.69 505.416 604.533L505.305 604.047C502.518 601.927 493.067 602.837 489.405 602.839C488.291 602.838 487.233 602.806 486.128 602.656C486.303 602.437 490.082 602.38 490.761 602.349C495.933 602.112 500.613 601.921 505.448 599.912L504.75 599.725L504.184 599.537L503.531 599.631L502.312 599.725C501.569 599.924 501.232 600.059 500.438 600.1C500.852 599.222 501.175 598.404 501.458 597.476C500.269 595.717 499.971 595.541 498.018 594.679L498.315 594.181L501.48 594.008C501.053 593.476 497.697 593.588 496.688 593.312C496.246 592.911 495.874 592.591 495.344 592.308C494.674 591.95 494.994 592.158 494.493 591.818C493.916 591.426 493.551 591.156 492.848 590.991L492.375 590.914L491.91 589.786L494.438 589.138L494.438 588.88L489.954 588.689L507.375 586.067C510.286 585.659 513.446 584.432 516.262 583.541C542.369 575.285 562.82 558.423 575.4 534.189L576.03 532.941L578.372 527.383L580.715 519.637ZM580.715 519.637L578.372 527.383L576.03 532.941L575.4 534.189C575.458 535.479 575.679 535.892 576.44 536.935L577.002 536.86C576.701 536.015 576.859 536.304 576.406 535.592L576.094 535.12C577.25 534.776 577.284 535.794 578.063 536.194C578.211 536.27 579.698 535.898 580.125 535.964L580.512 536.578L581.037 536.228L581.063 535.093C581.798 534.7 582.678 534.273 583.281 533.694C584.473 532.549 584.668 531.508 584.809 529.983L585.188 529.772L586.115 530.636C587.099 529.299 588.453 528.711 588.559 526.981L589.376 526.426L588.938 526.212L589.69 525.425L589.309 524.9C589.929 523.406 590.343 521.476 590.022 519.843C589.821 518.818 588.712 517.669 587.912 517.021L587.441 516.648C587.441 515.39 587.842 515.218 588.678 514.307L586.446 513.111L585.606 512.56C584.983 512.137 584.412 511.987 583.688 511.796L582.576 512.689L582.135 512.034C581.541 514.533 581.509 517.219 580.715 519.637ZM604.874 531.815C603.604 533.501 603.389 536.462 603.079 538.526C602.746 540.749 602.412 542.485 602.441 544.778C603.413 544.816 604.002 544.664 604.803 545.263C605.909 540.94 605.832 536.147 604.874 531.815Z"/>
	<path fill="#6ED5EB" fill-opacity="0.75294119" transform="scale(0.690104 0.675781)" d="M604.874 531.815C605.832 536.147 605.909 540.94 604.803 545.263C604.002 544.664 603.413 544.816 602.441 544.778C602.412 542.485 602.746 540.749 603.079 538.526C603.389 536.462 603.604 533.501 604.874 531.815Z"/>
	<path fill="#6FD5E9" fill-opacity="0.41960785" transform="scale(0.690104 0.675781)" d="M580.715 519.637C581.509 517.219 581.541 514.533 582.135 512.034L582.576 512.689L583.688 511.796C584.412 511.987 584.983 512.137 585.606 512.56L586.446 513.111L588.678 514.307C587.842 515.218 587.441 515.39 587.441 516.648L587.912 517.021C588.712 517.669 589.821 518.818 590.022 519.843C590.343 521.476 589.929 523.406 589.309 524.9L589.69 525.425L588.938 526.212L589.376 526.426L588.559 526.981C588.453 528.711 587.099 529.299 586.115 530.636L585.188 529.772L584.809 529.983C584.668 531.508 584.473 532.549 583.281 533.694C582.678 534.273 581.798 534.7 581.063 535.093L581.037 536.228L580.512 536.578L580.125 535.964C579.698 535.898 578.211 536.27 578.063 536.194C577.284 535.794 577.25 534.776 576.094 535.12L576.406 535.592C576.859 536.304 576.701 536.015 577.002 536.86L576.44 536.935C575.679 535.892 575.458 535.479 575.4 534.189L576.03 532.941L578.372 527.383L580.715 519.637ZM580.715 519.637L578.372 527.383L578.752 528.364C579.383 528.127 580.013 527.95 580.688 527.883L581.438 527.841C581.987 527.321 582.277 527.018 582.572 526.307C582.948 525.406 582.681 525.869 583.235 525.058C583.803 524.226 584.197 523.383 584.652 522.489C585.853 520.136 585.898 517.476 586.142 514.879C585.949 513.953 586 513.956 586.446 513.111L585.606 512.56C584.983 512.137 584.412 511.987 583.688 511.796L582.576 512.689L582.135 512.034C581.541 514.533 581.509 517.219 580.715 519.637ZM586.142 514.879C585.898 517.476 585.853 520.136 584.652 522.489C584.197 523.383 583.803 524.226 583.235 525.058C582.681 525.869 582.948 525.406 582.572 526.307C582.277 527.018 581.987 527.321 581.438 527.841L580.688 527.883C580.013 527.95 579.383 528.127 578.752 528.364L578.372 527.383L576.03 532.941C576.516 535.165 576.761 533.764 578.156 535.009C578.375 534.946 578.62 534.941 578.812 534.819C579.105 534.634 580.293 532.195 580.62 531.717C582.118 529.527 584.527 527.79 585.795 525.5C587.702 522.053 587.149 518.467 586.142 514.879Z"/>
	<defs>
		<linearGradient id="gradient_1" gradientUnits="userSpaceOnUse" x1="587.06201" y1="521.14899" x2="579.578" y2="519.31799">
			<stop offset="0" stop-color="#6ED7EA" stop-opacity="0.28627452"/>
			<stop offset="1" stop-color="#72D4E4" stop-opacity="0.41960785"/>
		</linearGradient>
	</defs>
	<path fill="url(#gradient_1)" transform="scale(0.690104 0.675781)" d="M586.142 514.879C587.149 518.467 587.702 522.053 585.795 525.5C584.527 527.79 582.118 529.527 580.62 531.717C580.293 532.195 579.105 534.634 578.812 534.819C578.62 534.941 578.375 534.946 578.156 535.009C576.761 533.764 576.516 535.165 576.03 532.941L578.372 527.383L578.752 528.364C579.383 528.127 580.013 527.95 580.688 527.883L581.438 527.841C581.987 527.321 582.277 527.018 582.572 526.307C582.948 525.406 582.681 525.869 583.235 525.058C583.803 524.226 584.197 523.383 584.652 522.489C585.853 520.136 585.898 517.476 586.142 514.879Z"/>
	<path fill="#6FD5E9" fill-opacity="0.23529412" transform="scale(0.690104 0.675781)" d="M580.715 519.637C581.509 517.219 581.541 514.533 582.135 512.034L582.576 512.689L583.688 511.796C584.412 511.987 584.983 512.137 585.606 512.56L586.446 513.111C586 513.956 585.949 513.953 586.142 514.879C585.898 517.476 585.853 520.136 584.652 522.489C584.197 523.383 583.803 524.226 583.235 525.058C582.681 525.869 582.948 525.406 582.572 526.307C582.277 527.018 581.987 527.321 581.438 527.841L580.688 527.883C580.013 527.95 579.383 528.127 578.752 528.364L578.372 527.383L580.715 519.637ZM580.715 519.637L581.009 521.149C581.439 520.848 581.606 520.648 581.809 520.159C582.107 519.444 582.235 518.817 582.849 518.297L583.312 517.96C584.105 517.301 585.145 516.017 585.232 515.002C585.305 514.16 585.439 513.39 585.606 512.56C584.983 512.137 584.412 511.987 583.688 511.796L582.576 512.689L582.135 512.034C581.541 514.533 581.509 517.219 580.715 519.637Z"/>
	<path fill="#6ED5EB" fill-opacity="0.019607844" transform="scale(0.690104 0.675781)" d="M580.715 519.637C581.509 517.219 581.541 514.533 582.135 512.034L582.576 512.689L583.688 511.796C584.412 511.987 584.983 512.137 585.606 512.56C585.439 513.39 585.305 514.16 585.232 515.002C585.145 516.017 584.105 517.301 583.312 517.96L582.849 518.297C582.235 518.817 582.107 519.444 581.809 520.159C581.606 520.648 581.439 520.848 581.009 521.149L580.715 519.637Z"/>
	<path transform="scale(0.690104 0.675781)" d="M124.681 177.593C136.373 177.876 145.716 182.996 150.64 193.944C150.884 194.487 152.003 197.883 152.275 198.065C152.794 198.411 154.126 198.624 154.783 198.816C157.723 199.675 160.247 200.891 162.442 203.1C166.428 207.112 167.882 212.391 167.788 217.919C167.687 223.867 166.274 229.732 161.768 233.91C158.744 236.714 155.39 237.974 151.314 237.739C150.207 237.675 147.586 241.003 146.579 241.839C142.184 245.487 136.857 246.629 131.34 247.027C125.592 246.733 121.571 245.816 117.2 241.774C116.592 241.212 115.308 239.615 114.625 239.316C113.458 238.807 109.632 239.388 108.188 239.317C104.72 239.146 100.309 237.537 97.4154 235.601C93.1428 232.743 89.3445 228.052 88.4036 222.929C87.5965 218.535 88.0643 214.666 90.7006 210.919C92.99 207.666 96.761 205.852 100.615 205.278C100.806 205.249 101.053 205.332 101.19 205.195C101.314 205.07 101.527 199.155 101.605 198.399C102.111 193.482 104.165 188.487 107.488 184.813C111.979 179.847 118.206 177.91 124.681 177.593Z"/>
	<path fill="#F7CDDB" transform="scale(0.690104 0.675781)" d="M148.337 234.788C148.562 232.792 148.917 232.249 150.022 230.665C151.675 228.296 154.121 226.604 155.793 224.249C156.312 223.517 157.029 222.807 157.308 221.944L157.43 221.474C158.225 219.608 158.503 216.893 157.947 214.873L157.468 213.465L157.187 212.611L157.098 212.151C156.56 210.209 154.087 208.707 152.415 207.847L151.875 207.578L150.752 207.006C149.588 206.545 149.001 206.159 148.045 205.347C147.952 203.48 148.239 202.405 148.99 200.712L149.505 200.867C150.926 201.266 152.483 200.933 153.938 201.142C157.546 201.662 160.831 204.767 162.687 207.785C165.591 212.505 165.801 218.669 164.456 223.929C163.476 227.761 161.03 231.717 157.528 233.7C154.46 235.437 151.712 235.535 148.337 234.788Z"/>
	<path fill="#FAF0F0" transform="scale(0.690104 0.675781)" d="M148.337 234.788C147.682 236.575 146.599 238.244 145.085 239.419C138.444 244.569 127.918 246.115 120.729 241.231C119.309 240.266 118.056 239.146 116.889 237.889C116.588 237.565 115.726 236.401 115.408 236.239C114.704 235.881 111.381 236.608 110.438 236.652C109.155 236.712 107.827 236.556 106.563 236.354C101.391 235.526 96.0874 232.095 93.1278 227.787C91.1508 224.909 89.4988 220.408 90.2332 216.866L90.3373 216.411L90.5289 215.405C91.1415 212.92 93.4025 210.418 95.6038 209.179C96.6533 208.588 99.0012 207.692 100.213 207.635C101.325 207.582 103.751 208.654 104.924 208.993C103.197 204.719 102.751 200.774 103.674 196.22C104.702 191.144 107.766 185.825 112.192 182.995C117.674 179.49 124.883 178.775 131.118 180.269C138.206 181.968 143.864 186.623 147.57 192.82C149.122 195.417 149.918 197.199 149.122 200.233L148.99 200.712C148.239 202.405 147.952 203.48 148.045 205.347C149.001 206.159 149.588 206.545 150.752 207.006L151.875 207.578L152.415 207.847C154.087 208.707 156.56 210.209 157.098 212.151L157.187 212.611L157.468 213.465L157.947 214.873C158.503 216.893 158.225 219.608 157.43 221.474L157.308 221.944C157.029 222.807 156.312 223.517 155.793 224.249C154.121 226.604 151.675 228.296 150.022 230.665C148.917 232.249 148.562 232.792 148.337 234.788Z"/>
	<path transform="scale(0.690104 0.675781)" d="M677.167 167.058C680.613 166.45 685.394 167.139 688.632 168.445C697.761 172.127 705.266 181.581 706.36 191.455C706.495 192.673 706.113 197.445 706.525 198.149C706.699 198.444 708.486 199.345 708.938 199.643C712.222 201.808 714.301 204.494 715.78 208.111C717.609 212.581 717.411 218.377 715.468 222.787C712.469 229.598 706.291 235.003 699.346 237.64C693.647 239.804 688.178 240.583 682.215 238.993L681.63 238.834C679.996 240.634 678.231 242.37 676.177 243.693C669.377 248.071 663.058 247.843 655.44 246.176C650.431 243.882 647.8 241.458 644.486 237.116C640.616 238.967 637.397 240.002 633.07 239.127C627.249 237.949 622.894 234.646 619.71 229.691C616.636 224.907 615.426 218.261 616.82 212.701C617.459 210.152 618.231 207.841 619.511 205.534C622.267 200.562 627.137 197.248 632.586 195.836C636.161 194.91 641.403 194.738 644.616 196.787C645.2 197.159 645.27 197.262 645.938 197.213C647.686 190.768 649.863 184.873 654.012 179.538C660.192 171.59 667.353 168.226 677.167 167.058Z"/>
	<path fill="#FAF0F0" transform="scale(0.690104 0.675781)" d="M676.208 169.287C678.955 169.217 681.787 169.211 684.496 169.736C690.468 170.895 695.57 174.609 698.971 179.596C701.611 183.468 703.139 187.697 703.861 192.301C704.092 193.773 704.431 195.436 704.097 196.909L703.063 201.198C704.392 201.28 705.584 201.409 706.825 201.931C709.788 203.177 711.737 205.36 712.928 208.322C714.841 213.079 714.517 218.262 712.319 222.869C709.323 229.15 702.511 233.696 696.088 235.86C690.718 237.67 686.851 237.919 681.705 235.378L676.713 239.797C672.209 243.221 666.658 245.148 660.979 244.332L660.375 244.24C658.011 243.904 656.042 243.237 653.824 242.382C649.376 239.916 647.326 236.713 645.591 232.102C643.864 233.913 641.976 235.702 639.461 236.293C635.371 237.256 630.731 236.031 627.278 233.75C623.101 230.991 620.352 226.082 619.367 221.253C618.26 215.82 619.007 210.196 622.225 205.548C625.22 201.224 629.967 198.434 635.145 197.652C640.354 196.866 643.965 199.336 647.988 202.244C648.363 202.107 648.497 196.89 648.649 195.949C649.467 190.91 651.527 186.192 654.62 182.131C660.108 174.927 667.223 170.515 676.208 169.287Z"/>
	<defs>
		<linearGradient id="gradient_2" gradientUnits="userSpaceOnUse" x1="411.93799" y1="591.28601" x2="370.87201" y2="664.68298">
			<stop offset="0" stop-color="#6ED5E9" stop-opacity="0.66666669"/>
			<stop offset="1" stop-color="#70D7ED"/>
		</linearGradient>
	</defs>
	<path fill="url(#gradient_2)" transform="scale(0.690104 0.675781)" d="M224.693 525.971L236.213 526.78C237.447 542.288 247.092 554.797 258.625 564.584C266.815 571.535 276.435 576.86 286.327 580.962C308.447 590.134 333.367 593.915 357.226 591.882C367.426 591.014 377.044 589.417 386.932 586.722L387.383 586.549L397.517 582.813L396.02 584.16C396.648 584.67 397.447 584.835 398.25 584.718L398.806 584.593C399.409 584.462 399.693 584.533 400.284 584.632C400.792 584.717 401.278 584.695 401.791 584.705C402.972 584.728 404.155 584.953 405.065 585.769L405.295 586.029C404.417 586.416 403.579 586.757 402.801 587.322C404.344 588.372 405.442 588.936 407.252 589.414C410.545 590.285 412.672 591.318 415.173 593.677L417.781 595.775C418.758 596.518 419.572 597.294 419.742 598.568C419.928 599.965 419.992 600.575 420.871 601.72L423.068 602.53C421.541 602.682 417.725 602.367 416.625 603.1L412.312 603.1L412.127 603.427C417.146 605.525 422.95 603.378 428.122 605.319C429.519 605.843 431.212 605.406 432.518 606.099L432.555 606.685L356.822 611.19C325.895 611.929 295.515 608.669 265.602 600.701C257.219 598.468 248.764 595.949 241.012 591.987C234.573 588.696 228.885 584.371 223.666 579.38C214.312 570.435 208.747 561.328 208.458 548.094C208.536 547.206 208.557 546.261 208.819 545.406C209.343 543.692 209.588 541.924 210.319 540.263C211.713 537.093 214.227 534.198 217.036 532.203C219.92 530.154 223.194 529.387 224.693 525.971ZM397.517 582.813L387.383 586.549C388.122 587.143 388.758 587.426 389.625 587.779L390.047 587.718C391.229 587.558 392.021 587.658 393.188 587.718L394.245 587.625C395.548 587.503 396.488 587.693 397.541 588.534C398.751 588.129 399.163 587.041 400.145 586.537C400.423 586.395 401.437 586.436 401.798 586.408L401.252 586.691L401.19 587.124C401.978 587.446 401.952 587.612 402.801 587.322C403.579 586.757 404.417 586.416 405.295 586.029L405.065 585.769C404.155 584.953 402.972 584.728 401.791 584.705C401.278 584.695 400.792 584.717 400.284 584.632C399.693 584.533 399.409 584.462 398.806 584.593L398.25 584.718C397.447 584.835 396.648 584.67 396.02 584.16L397.517 582.813ZM387.383 586.549L386.932 586.722L386.785 587.103C386.563 587.654 386.664 587.442 386.34 587.957L387.285 588.402L387.326 589.973C388.638 590.683 389.046 590.396 390.46 589.989C391.552 589.675 392.21 589.306 393.109 588.626C393.581 588.591 394.437 588.424 394.875 588.549C396.02 588.876 396.025 589.64 397.231 589.048L397.541 588.534C396.488 587.693 395.548 587.503 394.245 587.625L393.188 587.718C392.021 587.658 391.229 587.558 390.047 587.718L389.625 587.779C388.758 587.426 388.122 587.143 387.383 586.549Z"/>
	<path fill="#6FD5E9" fill-opacity="0.64313728" transform="scale(0.690104 0.675781)" d="M387.383 586.549C388.122 587.143 388.758 587.426 389.625 587.779L390.047 587.718C391.229 587.558 392.021 587.658 393.188 587.718L394.245 587.625C395.548 587.503 396.488 587.693 397.541 588.534L397.231 589.048C396.025 589.64 396.02 588.876 394.875 588.549C394.437 588.424 393.581 588.591 393.109 588.626C392.21 589.306 391.552 589.675 390.46 589.989C389.046 590.396 388.638 590.683 387.326 589.973L387.285 588.402L386.34 587.957C386.664 587.442 386.563 587.654 386.785 587.103L386.932 586.722L387.383 586.549Z"/>
	<path fill="#6ED5EB" fill-opacity="0.59215689" transform="scale(0.690104 0.675781)" d="M397.517 582.813L396.02 584.16C396.648 584.67 397.447 584.835 398.25 584.718L398.806 584.593C399.409 584.462 399.693 584.533 400.284 584.632C400.792 584.717 401.278 584.695 401.791 584.705C402.972 584.728 404.155 584.953 405.065 585.769L405.295 586.029C404.417 586.416 403.579 586.757 402.801 587.322C401.952 587.612 401.978 587.446 401.19 587.124L401.252 586.691L401.798 586.408C401.437 586.436 400.423 586.395 400.145 586.537C399.163 587.041 398.751 588.129 397.541 588.534C396.488 587.693 395.548 587.503 394.245 587.625L393.188 587.718C392.021 587.658 391.229 587.558 390.047 587.718L389.625 587.779C388.758 587.426 388.122 587.143 387.383 586.549L397.517 582.813Z"/>
	<path transform="scale(0.690104 0.675781)" d="M206.547 521.877L198.975 518.842C174.729 508.481 154.921 490.499 145.057 465.742C134.356 438.883 137.026 407.486 148.364 381.296C155.123 365.683 166.351 351.156 182.537 344.751C179.406 331.72 178.89 319.195 181.297 305.963C186.103 279.549 200.812 255.956 222.993 240.666C237.417 230.723 256 225.221 273.48 226.229C276.614 226.409 279.842 227.09 282.93 227.658L287.973 217.859C303.16 191.901 332.009 174.447 360.576 167.138C371.994 164.217 383.185 163.412 394.907 163.478C420.256 163.621 446.117 168.775 468.086 181.816C487.812 193.525 504.107 210.928 512.243 232.594C513.63 236.287 514.323 240.065 515.288 243.863L525.76 245.911C553.014 252.42 575.032 275.886 584.51 301.574C586.926 308.122 588.471 314.679 589.859 321.491C589.909 321.738 590.308 324.015 590.389 324.077C590.958 324.519 593.039 324.905 593.812 325.175C595.999 325.938 598.121 326.906 600.19 327.943C611.105 333.412 620.006 343.222 626.289 353.553C642.524 380.252 644.125 416.167 636.677 445.957C633.465 458.803 628.08 471.11 619.766 481.494C617.434 484.406 614.661 487.033 612.007 489.649C608.072 493.529 603.925 497.256 599.298 500.302C595.713 502.662 591.948 504.481 588.135 506.427C586.614 507.203 584.684 507.961 583.312 508.969C582.152 509.823 582.336 510.687 582.135 512.034C581.541 514.533 581.509 517.219 580.715 519.637L578.372 527.383L576.03 532.941L575.4 534.189C562.82 558.423 542.369 575.285 516.262 583.541C513.446 584.432 510.286 585.659 507.375 586.067L489.954 588.689L494.438 588.88L494.438 589.138L491.91 589.786L492.375 590.914L492.848 590.991C493.551 591.156 493.916 591.426 494.493 591.818C494.994 592.158 494.674 591.95 495.344 592.308C495.874 592.591 496.246 592.911 496.688 593.312C497.697 593.588 501.053 593.476 501.48 594.008L498.315 594.181L498.018 594.679C499.971 595.541 500.269 595.717 501.458 597.476C501.175 598.404 500.852 599.222 500.438 600.1C501.232 600.059 501.569 599.924 502.312 599.725L503.531 599.631L504.184 599.537L504.75 599.725L505.448 599.912C500.613 601.921 495.933 602.112 490.761 602.349C490.082 602.38 486.303 602.437 486.128 602.656L475.173 603.197C469.699 603.367 464.48 602.865 459.047 602.78C450.723 602.649 442.38 602.743 434.062 602.348C431.828 602.242 428.658 602.463 426.554 601.704L426 601.485L425.625 601.788C424.478 601.766 423.99 601.825 423.068 602.53L420.871 601.72C419.992 600.575 419.928 599.965 419.742 598.568C419.572 597.294 418.758 596.518 417.781 595.775L415.173 593.677C412.672 591.318 410.545 590.285 407.252 589.414C405.442 588.936 404.344 588.372 402.801 587.322C403.579 586.757 404.417 586.416 405.295 586.029L405.065 585.769C404.155 584.953 402.972 584.728 401.791 584.705C401.278 584.695 400.792 584.717 400.284 584.632C399.693 584.533 399.409 584.462 398.806 584.593L398.25 584.718C397.447 584.835 396.648 584.67 396.02 584.16L397.517 582.813L387.383 586.549L386.932 586.722C377.044 589.417 367.426 591.014 357.226 591.882C333.367 593.915 308.447 590.134 286.327 580.962C276.435 576.86 266.815 571.535 258.625 564.584C247.092 554.797 237.447 542.288 236.213 526.78L224.693 525.971L206.547 521.877ZM390.154 171.267C391.702 173.47 394.466 174.467 397 175.342C406.433 178.596 415.938 182.864 421.536 191.655C423.697 195.05 425.88 198.503 427.359 202.27C429.161 206.861 430.297 211.597 431.918 216.223L431.627 217.163C431.044 217.301 430.527 217.361 429.933 217.389C429.21 217.424 428.686 217.58 428.011 217.858L428.61 218.162C429.731 218.682 431.163 218.483 432.366 218.418L432.679 218.642C434.991 220.211 437.656 219.691 440.25 220.264C441.814 220.61 443.361 220.598 444.938 221.031L447.938 221.78C459.134 225.283 467.823 230.964 477.512 237.314C479.764 238.79 482.218 240.864 484.125 242.778L484.552 243.198C487.673 246.303 490.303 249.916 492.452 253.744C493.49 255.593 494.115 257.759 494.755 259.769L496.043 264.787C500.749 264.119 506.134 263.639 510.872 264.237C518.693 265.224 527.363 269.958 533.611 274.599L536.824 277.189C546.528 285.212 552.92 296.192 556.597 308.093C557.208 310.07 557.344 312.074 557.757 314.087C558.726 318.817 558.679 323.755 559.223 328.541L559.741 328.623C562.624 329.116 564.358 330.232 566.581 332.118C569.756 334.812 572.415 337.865 574.753 341.307C579.438 348.204 582.696 356.268 586.015 363.886C588.857 370.412 591.912 376.679 593.715 383.605C594.805 387.791 595.291 392.585 595.695 396.886C595.939 399.484 595.558 402.133 595.251 404.713C594.173 413.746 591.148 422.841 585.282 429.947C583.399 432.228 581.041 434.496 578.83 436.454C578.399 436.836 575.905 438.665 575.815 438.944C575.814 438.948 575.892 439.962 575.903 440.1C576.344 445.758 577.429 450.952 576.299 456.638C574.454 465.92 569.412 475.032 561.375 480.366C559.407 481.673 557.287 482.818 555 483.434L554.476 483.58C553.208 483.925 552.012 484.108 550.708 484.253C550.237 484.306 549.855 484.392 549.401 484.5C547.314 484.998 540.604 483.243 539.418 483.952C539.085 484.151 538.267 485.689 538.02 486.081L537.629 486.74C535.48 490.315 531.817 494.244 528.42 496.637C524.093 499.684 519.563 501.891 514.303 502.784C512.443 503.099 510.521 503.129 508.689 503.575C506.673 504.066 503.656 503.864 501.657 503.37C499.947 502.947 497.792 503.146 496.021 503.122L495.715 503.76L491.882 510.177C490.303 512.682 487.449 515.342 485.062 517.09L484.648 517.428C481.142 520.195 477.072 521.912 472.967 523.553C469.896 524.781 466.449 525.208 463.245 525.968C460.123 526.709 457.047 526.543 453.938 526.912C452.113 527.129 451.087 527.231 449.25 526.893C448.078 526.677 446.718 526.889 445.513 526.775C442.467 526.486 439.268 525.697 436.312 524.931C434.935 524.573 433.42 524.001 432.002 523.997C431.392 524.719 430.884 525.418 430.365 526.212C427.53 530.558 423.965 535.671 419.653 538.629C414.971 541.84 410.799 544.496 405.375 546.424C401.661 547.744 397.833 548.966 393.939 549.656C391.518 550.085 389.062 550.131 386.649 550.687C385.066 551.052 383.089 550.894 381.455 550.912C377.9 550.951 374.397 550.965 370.875 550.433C369.235 550.186 367.637 550.028 366 549.728C364.471 549.448 363.023 549.359 361.5 548.983C356.827 547.83 352.375 546.748 347.799 545.202C343.428 543.727 338.812 541.595 334.875 539.201L330.978 536.909C328.659 535.542 326.484 533.75 324.375 532.079C321.213 529.574 317.893 527.05 315.528 523.775C313.878 521.49 311.63 519.613 310.123 517.213C309.601 516.381 309.072 515.588 308.438 514.835C305.859 515.227 303.2 516.74 300.708 517.636C297.715 518.712 294.285 518.954 291.14 519.28C288.291 519.577 286.363 519.93 283.5 519.363L278.623 518.768C277.654 518.632 276.931 518.485 276 518.18L275.248 518.009C272.642 517.294 270.299 516.312 267.797 515.324C265.886 514.57 263.825 513.335 262.125 512.184L257.895 509.097C256.495 508.099 254.854 506.544 253.621 505.363C253.319 505.074 252.634 504.208 252.284 504.039C251.337 503.581 248.117 503.897 246.75 503.626C245.923 503.462 244.967 503.362 244.125 503.222C243.303 503.085 242.856 503.121 242.063 502.838L237.934 501.646L237.502 501.498L234.69 500.305L230.795 498.27C229.744 497.659 228.805 497.098 227.809 496.395L227.25 496.024C223.534 493.361 218.888 489.516 216.351 485.722C214.999 483.7 213.701 481.717 212.387 479.67C212.065 479.17 211.932 478.778 211.742 478.227C211.313 476.988 210.592 475.865 210.128 474.641C208.615 470.644 207.293 465.79 207.105 461.514C207.061 460.51 207.383 457.325 206.627 456.891C206.243 457.617 206.329 457.887 205.5 458.142L205.161 458.23C202.019 459.072 198.946 460.599 195.728 461.13C192.722 461.626 189.831 462.497 186.752 462.887L186.026 462.988C183.612 463.301 181.082 462.877 178.697 463.331C178.043 463.456 177.855 463.341 177.243 463.201C175.249 462.743 173.075 463.148 171 462.719C170.024 462.517 169.382 462.696 168.375 462.3C167.486 461.951 166.601 461.791 165.668 461.621C160.701 459.66 156.406 456.815 152.438 453.282L152.159 453.638L153.188 454.644L150.889 455.911C153.02 461.694 155.207 467.183 158.224 472.584C158.609 473.273 159.607 475.396 160.222 475.748C165.711 485.188 173.768 493.285 182.367 499.92C194.851 509.552 211.58 516.759 227.438 517.566C232.54 517.826 237.424 517.239 242.467 516.579L242.709 520.769C244.014 535.45 252.157 548.23 263.278 557.56C288.665 578.86 326.524 586.942 358.965 583.971C375.691 582.439 394.413 578.54 407.438 567.302C411.14 564.108 414.228 560.182 417.352 556.437L422.944 562.934C426.789 566.939 431.891 569.827 436.877 572.156C450.695 578.608 465.968 581.274 481.125 581.594C492.764 581.84 504.355 579.435 515.317 575.663C528.176 571.238 539.691 565.315 549.577 555.793C559.84 545.91 568.335 533.163 572.144 519.334C573.527 514.313 574.063 509.511 574.502 504.355C574.62 502.977 576.449 502.965 577.641 502.589C587.597 499.443 596.428 493.747 603.93 486.519C622.636 468.496 632.221 442.104 632.656 416.382C633.16 386.632 623.879 349.67 594.866 335.315C591.691 333.745 588.861 332.733 585.377 332.094C584.628 331.956 583.878 331.825 583.127 331.698C582.965 331.67 582.734 331.751 582.641 331.616C582.463 331.359 582.496 328.494 582.459 327.992C582.236 324.984 581.765 321.96 581.249 318.991C578.445 302.849 569.363 286.716 557.976 275.087C544.883 261.716 527.88 252.589 508.951 252.314C506.308 234.958 496.983 218.625 484.789 206.164C459.656 180.479 425.006 171.651 390.154 171.267ZM403.835 579.669L397.517 582.813L396.02 584.16C396.648 584.67 397.447 584.835 398.25 584.718L398.806 584.593C399.409 584.462 399.693 584.533 400.284 584.632C400.792 584.717 401.278 584.695 401.791 584.705C402.972 584.728 404.155 584.953 405.065 585.769L405.295 586.029C404.417 586.416 403.579 586.757 402.801 587.322C404.344 588.372 405.442 588.936 407.252 589.414C410.545 590.285 412.672 591.318 415.173 593.677L417.781 595.775C418.758 596.518 419.572 597.294 419.742 598.568C419.928 599.965 419.992 600.575 420.871 601.72L423.068 602.53C423.99 601.825 424.478 601.766 425.625 601.788L426 601.485L426.554 601.704C428.658 602.463 431.828 602.242 434.062 602.348C442.38 602.743 450.723 602.649 459.047 602.78C464.48 602.865 469.699 603.367 475.173 603.197L486.128 602.656C486.303 602.437 490.082 602.38 490.761 602.349C495.933 602.112 500.613 601.921 505.448 599.912L504.75 599.725L504.184 599.537L503.531 599.631L502.312 599.725C501.569 599.924 501.232 600.059 500.438 600.1C500.852 599.222 501.175 598.404 501.458 597.476C500.269 595.717 499.971 595.541 498.018 594.679L498.315 594.181L501.48 594.008C501.053 593.476 497.697 593.588 496.688 593.312C496.246 592.911 495.874 592.591 495.344 592.308C494.674 591.95 494.994 592.158 494.493 591.818C493.916 591.426 493.551 591.156 492.848 590.991L492.375 590.914L491.91 589.786L494.438 589.138L494.438 588.88L489.954 588.689C480.839 589.386 471.723 589.244 462.664 587.828C458.689 587.207 454.788 586.153 450.826 585.55L451.046 586.033C450.347 586.183 449.743 586.283 449.11 586.631L448.773 586.844C448.357 586.183 447.867 586.079 447.188 585.723L445.171 585.943L444.374 584.91L442.875 584.433C441.61 583.756 440.378 583.774 439.262 583.133C437.607 582.181 435.573 581.467 433.688 581.031C433.275 581.363 433.293 581.372 432.748 581.673C431.75 582.226 430.31 582.662 429.161 582.59C427.036 582.457 424.926 581.448 422.813 581.101C420.315 580.691 417.651 580.341 415.132 580.094C413.866 579.97 412.25 580.144 411.074 579.681C410.619 579.502 408.303 578.213 407.939 578.259C407.517 578.312 407.272 578.787 406.937 579.048C405.738 579.98 405.194 580.518 403.625 580.51L403.835 579.669ZM403.835 579.669L403.625 580.51C405.194 580.518 405.738 579.98 406.937 579.048C407.272 578.787 407.517 578.312 407.939 578.259C408.303 578.213 410.619 579.502 411.074 579.681C412.25 580.144 413.866 579.97 415.132 580.094C417.651 580.341 420.315 580.691 422.813 581.101C424.926 581.448 427.036 582.457 429.161 582.59C430.31 582.662 431.75 582.226 432.748 581.673C433.293 581.372 433.275 581.363 433.688 581.031C435.573 581.467 437.607 582.181 439.262 583.133C440.378 583.774 441.61 583.756 442.875 584.433L444.374 584.91L445.171 585.943L447.188 585.723C447.867 586.079 448.357 586.183 448.773 586.844L449.11 586.631C449.743 586.283 450.347 586.183 451.046 586.033L450.826 585.55C438.325 582.642 427.613 577.047 417.58 569.114C413.154 572.733 409.626 576.631 404.443 579.353L403.835 579.669Z"/>
	<path fill="#6FD5E9" fill-opacity="0.35686275" transform="scale(0.690104 0.675781)" d="M403.835 579.669L403.625 580.51C405.194 580.518 405.738 579.98 406.937 579.048C407.272 578.787 407.517 578.312 407.939 578.259C408.303 578.213 410.619 579.502 411.074 579.681C412.25 580.144 413.866 579.97 415.132 580.094C417.651 580.341 420.315 580.691 422.813 581.101C424.926 581.448 427.036 582.457 429.161 582.59C430.31 582.662 431.75 582.226 432.748 581.673C433.293 581.372 433.275 581.363 433.688 581.031C435.573 581.467 437.607 582.181 439.262 583.133C440.378 583.774 441.61 583.756 442.875 584.433L444.374 584.91L445.171 585.943L447.188 585.723C447.867 586.079 448.357 586.183 448.773 586.844L449.11 586.631C449.743 586.283 450.347 586.183 451.046 586.033L450.826 585.55C454.788 586.153 458.689 587.207 462.664 587.828C471.723 589.244 480.839 589.386 489.954 588.689L494.438 588.88L494.438 589.138L491.91 589.786L492.375 590.914L492.848 590.991C493.551 591.156 493.916 591.426 494.493 591.818C494.994 592.158 494.674 591.95 495.344 592.308C495.874 592.591 496.246 592.911 496.688 593.312C497.697 593.588 501.053 593.476 501.48 594.008L498.315 594.181L498.018 594.679C499.971 595.541 500.269 595.717 501.458 597.476C501.175 598.404 500.852 599.222 500.438 600.1C501.232 600.059 501.569 599.924 502.312 599.725L503.531 599.631L504.184 599.537L504.75 599.725L505.448 599.912C500.613 601.921 495.933 602.112 490.761 602.349C490.082 602.38 486.303 602.437 486.128 602.656L475.173 603.197C469.699 603.367 464.48 602.865 459.047 602.78C450.723 602.649 442.38 602.743 434.062 602.348C431.828 602.242 428.658 602.463 426.554 601.704L426 601.485L425.625 601.788C424.478 601.766 423.99 601.825 423.068 602.53L420.871 601.72C419.992 600.575 419.928 599.965 419.742 598.568C419.572 597.294 418.758 596.518 417.781 595.775L415.173 593.677C412.672 591.318 410.545 590.285 407.252 589.414C405.442 588.936 404.344 588.372 402.801 587.322C403.579 586.757 404.417 586.416 405.295 586.029L405.065 585.769C404.155 584.953 402.972 584.728 401.791 584.705C401.278 584.695 400.792 584.717 400.284 584.632C399.693 584.533 399.409 584.462 398.806 584.593L398.25 584.718C397.447 584.835 396.648 584.67 396.02 584.16L397.517 582.813L403.835 579.669Z"/>
	<path fill="white" transform="scale(0.690104 0.675781)" d="M150.889 455.911C149.868 451.515 148.491 447.208 147.665 442.769C144.976 428.3 146.017 412.856 150.138 398.767C156.157 378.192 167.679 361.936 186.652 351.599C190.851 358.724 198.103 362.976 204.9 367.261C204.429 365.512 201.692 362.685 200.601 361.064C198.762 358.332 197.047 355.493 195.55 352.559C186.091 334.013 186.192 313.05 192.673 293.58C199.954 271.707 214.325 252.702 235.313 242.36C246.789 236.705 260.579 232.758 273.492 233.842C278.47 234.26 283.093 235.537 287.807 237.122C291.947 224.664 298.84 214.131 307.908 204.716C328.809 183.016 360.476 171.849 390.154 171.267C391.702 173.47 394.466 174.467 397 175.342C406.433 178.596 415.938 182.864 421.536 191.655C423.697 195.05 425.88 198.503 427.359 202.27C429.161 206.861 430.297 211.597 431.918 216.223L431.627 217.163C431.044 217.301 430.527 217.361 429.933 217.389C429.21 217.424 428.686 217.58 428.011 217.858C426.669 217.753 425.975 217.837 424.688 218.103C423.235 218.402 421.711 218.158 420.188 218.478C418.901 218.747 417.7 218.769 416.438 219.228L414.939 219.526C414.372 219.627 413.969 219.793 413.437 219.988L410.826 220.745C410.013 221.017 410.506 220.877 409.688 221.025C409.007 221.148 408.624 221.408 408.002 221.671L406.877 222.045L402.939 223.361L399.375 224.861L398.438 225.229L390.564 229.074L387.752 230.671C383.548 232.915 378.968 236.162 375.377 239.298C373.946 240.547 372.604 241.776 371.062 242.877C369.748 243.815 368.888 245.601 367.358 246.228L367.125 246.63L359.023 255.624C358.318 256.33 359.034 255.576 358.502 256.545C358.134 257.215 357.431 257.656 357.002 258.42C356.386 259.516 355.262 260.495 354.562 261.61L351.565 266.107C351.039 266.902 350.604 267.741 350.083 268.545C349.618 269.262 349.377 270.072 348.864 270.773C347.834 272.181 347.159 274.065 346.511 275.673C346.044 276.832 345.45 277.863 345.013 279.048L344.738 279.669C344.336 280.592 344.523 280.093 344.263 281.004C343.97 282.031 343.434 282.895 343.14 283.924C342.761 285.25 342.18 286.5 341.931 287.861C341.769 288.746 341.367 289.378 340.875 290.114C340.245 290.135 339.781 290.21 339.197 289.938C338.428 289.58 337.712 289.918 336.945 289.561C335.697 288.981 334.071 289.753 332.811 289.191C331.866 288.77 329.944 289.08 328.875 289.103C325.729 289.17 322.342 288.776 319.312 289.364C318.305 289.56 317.351 289.516 316.312 289.739C315.59 289.895 315.168 289.867 314.438 290.114L311.437 290.865C310.636 291.008 310.115 291.316 309.375 291.615L308.627 291.814L304.5 293.49L303.012 294.048C299.835 295.199 296.276 297.975 293.449 299.859C292.873 300.242 292.387 300.665 291.865 301.112C291.593 301.345 291.285 301.533 291 301.749C290.433 302.18 290.021 302.578 289.407 302.947C287.687 303.981 286.383 305.769 284.812 306.992C283.125 308.307 281.66 309.472 280.502 311.304C279.876 312.293 278.89 312.844 278.252 313.929L277.439 314.76C276.86 315.33 276.611 315.713 276.188 316.369C275.524 317.395 274.645 318.347 273.938 319.369C272.264 321.787 270.672 324.101 269.263 326.681L267.39 330.057C266.943 330.941 266.634 331.775 266.255 332.682L265.691 333.805L265.127 335.308L264.774 336.023C264.457 336.657 264.242 337.258 264.025 337.933L262.699 341.871C262.153 343.533 261.985 345.408 261.38 347.026C261.121 347.718 261.316 348.314 261.022 348.974C260.678 349.742 260.986 350.472 260.646 351.24C260.234 352.168 260.486 353.629 260.458 354.654C260.443 355.231 260.095 355.558 260.078 356.15C259.992 359.132 260.049 362.136 260.053 365.12L257.262 366.053L254.778 367.119C254.104 367.455 254.456 367.317 253.853 367.478C253.344 367.614 253.184 367.862 252.75 368.127L251.627 368.695L250.125 369.631L249.598 369.972C248.692 370.576 247.837 371.258 246.938 371.878C243.329 374.365 240.138 377.535 237.043 380.618C235.595 382.061 233.899 383.47 232.877 385.191C232.38 386.027 231.532 386.513 231.002 387.441C230.606 388.134 229.94 388.528 229.502 389.317C228.892 390.414 227.758 391.388 227.062 392.506C226.496 393.417 225.772 394.215 225.188 395.132L224.823 395.671C223.762 397.262 222.87 398.968 221.832 400.567L220.608 403.006C219.917 404.395 219.199 405.489 218.627 406.945L218.07 408.068C217.563 409.068 217.18 410.037 216.763 411.07C216.402 411.966 215.969 412.787 215.639 413.708L214.5 416.72C214.262 417.429 214.402 417.067 214.114 417.646C213.869 418.138 213.972 417.881 213.865 418.453C213.745 419.099 213.464 419.481 213.214 420.07C213.045 420.468 213.012 420.952 212.936 421.372C212.829 421.964 212.627 422.329 212.441 422.883C211.856 424.629 211.511 426.396 210.941 428.134L210.601 429.446L210.491 429.834L210.303 430.748C210.158 431.536 210.262 431.096 210.012 431.79C209.394 433.506 209.634 435.87 208.891 437.489C208.32 438.734 208.719 440.761 208.137 442.004C207.772 442.783 208.108 443.482 207.938 444.265C207.697 445.371 207.238 446.94 207.214 448.052C207.19 449.157 207.434 450.721 207.188 451.766C206.801 453.406 206.47 455.17 206.627 456.891C206.243 457.617 206.329 457.887 205.5 458.142L205.161 458.23C202.019 459.072 198.946 460.599 195.728 461.13C192.722 461.626 189.831 462.497 186.752 462.887L186.026 462.988C183.612 463.301 181.082 462.877 178.697 463.331C178.043 463.456 177.855 463.341 177.243 463.201C175.249 462.743 173.075 463.148 171 462.719C170.024 462.517 169.382 462.696 168.375 462.3C167.486 461.951 166.601 461.791 165.668 461.621C160.701 459.66 156.406 456.815 152.438 453.282L152.159 453.638L153.188 454.644L150.889 455.911Z"/>
	<defs>
		<linearGradient id="gradient_3" gradientUnits="userSpaceOnUse" x1="632.06201" y1="425.508" x2="170.407" y2="370.98599">
			<stop offset="0" stop-color="#D1C8D5"/>
			<stop offset="1" stop-color="#DCEDF8"/>
		</linearGradient>
	</defs>
	<path fill="url(#gradient_3)" transform="scale(0.690104 0.675781)" d="M390.154 171.267C425.006 171.651 459.656 180.479 484.789 206.164C496.983 218.625 506.308 234.958 508.951 252.314C527.88 252.589 544.883 261.716 557.976 275.087C569.363 286.716 578.445 302.849 581.249 318.991C581.765 321.96 582.236 324.984 582.459 327.992C582.496 328.494 582.463 331.359 582.641 331.616C582.734 331.751 582.965 331.67 583.127 331.698C583.878 331.825 584.628 331.956 585.377 332.094C588.861 332.733 591.691 333.745 594.866 335.315C623.879 349.67 633.16 386.632 632.656 416.382C632.221 442.104 622.636 468.496 603.93 486.519C596.428 493.747 587.597 499.443 577.641 502.589C576.449 502.965 574.62 502.977 574.502 504.355C574.063 509.511 573.527 514.313 572.144 519.334C568.335 533.163 559.84 545.91 549.577 555.793C539.691 565.315 528.176 571.238 515.317 575.663C504.355 579.435 492.764 581.84 481.125 581.594C465.968 581.274 450.695 578.608 436.877 572.156C431.891 569.827 426.789 566.939 422.944 562.934L417.352 556.437C414.228 560.182 411.14 564.108 407.438 567.302C394.413 578.54 375.691 582.439 358.965 583.971C326.524 586.942 288.665 578.86 263.278 557.56C252.157 548.23 244.014 535.45 242.709 520.769L242.467 516.579C237.424 517.239 232.54 517.826 227.438 517.566C211.58 516.759 194.851 509.552 182.367 499.92C173.768 493.285 165.711 485.188 160.222 475.748C159.607 475.396 158.609 473.273 158.224 472.584C155.207 467.183 153.02 461.694 150.889 455.911L153.188 454.644L152.159 453.638L152.438 453.282C156.406 456.815 160.701 459.66 165.668 461.621C166.601 461.791 167.486 461.951 168.375 462.3C169.382 462.696 170.024 462.517 171 462.719C173.075 463.148 175.249 462.743 177.243 463.201C177.855 463.341 178.043 463.456 178.697 463.331C181.082 462.877 183.612 463.301 186.026 462.988L186.752 462.887C189.831 462.497 192.722 461.626 195.728 461.13C198.946 460.599 202.019 459.072 205.161 458.23L205.5 458.142C206.329 457.887 206.243 457.617 206.627 456.891C207.383 457.325 207.061 460.51 207.105 461.514C207.293 465.79 208.615 470.644 210.128 474.641C210.592 475.865 211.313 476.988 211.742 478.227C211.932 478.778 212.065 479.17 212.387 479.67C213.701 481.717 214.999 483.7 216.351 485.722C218.888 489.516 223.534 493.361 227.25 496.024L227.809 496.395C228.805 497.098 229.744 497.659 230.795 498.27L234.69 500.305L237.502 501.498L237.934 501.646L242.063 502.838C242.856 503.121 243.303 503.085 244.125 503.222C244.967 503.362 245.923 503.462 246.75 503.626C248.117 503.897 251.337 503.581 252.284 504.039C252.634 504.208 253.319 505.074 253.621 505.363C254.854 506.544 256.495 508.099 257.895 509.097L262.125 512.184C263.825 513.335 265.886 514.57 267.797 515.324C270.299 516.312 272.642 517.294 275.248 518.009L276 518.18C276.931 518.485 277.654 518.632 278.623 518.768L283.5 519.363C286.363 519.93 288.291 519.577 291.14 519.28C294.285 518.954 297.715 518.712 300.708 517.636C303.2 516.74 305.859 515.227 308.438 514.835C309.072 515.588 309.601 516.381 310.123 517.213C311.63 519.613 313.878 521.49 315.528 523.775C317.893 527.05 321.213 529.574 324.375 532.079C326.484 533.75 328.659 535.542 330.978 536.909L334.875 539.201C338.812 541.595 343.428 543.727 347.799 545.202C352.375 546.748 356.827 547.83 361.5 548.983C363.023 549.359 364.471 549.448 366 549.728C367.637 550.028 369.235 550.186 370.875 550.433C374.397 550.965 377.9 550.951 381.455 550.912C383.089 550.894 385.066 551.052 386.649 550.687C389.062 550.131 391.518 550.085 393.939 549.656C397.833 548.966 401.661 547.744 405.375 546.424C410.799 544.496 414.971 541.84 419.653 538.629C423.965 535.671 427.53 530.558 430.365 526.212C430.884 525.418 431.392 524.719 432.002 523.997C433.42 524.001 434.935 524.573 436.312 524.931C439.268 525.697 442.467 526.486 445.513 526.775C446.718 526.889 448.078 526.677 449.25 526.893C451.087 527.231 452.113 527.129 453.938 526.912C457.047 526.543 460.123 526.709 463.245 525.968C466.449 525.208 469.896 524.781 472.967 523.553C477.072 521.912 481.142 520.195 484.648 517.428L485.062 517.09C487.449 515.342 490.303 512.682 491.882 510.177L495.715 503.76L496.021 503.122C497.792 503.146 499.947 502.947 501.657 503.37C503.656 503.864 506.673 504.066 508.689 503.575C510.521 503.129 512.443 503.099 514.303 502.784C519.563 501.891 524.093 499.684 528.42 496.637C531.817 494.244 535.48 490.315 537.629 486.74L538.02 486.081C538.267 485.689 539.085 484.151 539.418 483.952C540.604 483.243 547.314 484.998 549.401 484.5C549.855 484.392 550.237 484.306 550.708 484.253C552.012 484.108 553.208 483.925 554.476 483.58L555 483.434C557.287 482.818 559.407 481.673 561.375 480.366C569.412 475.032 574.454 465.92 576.299 456.638C577.429 450.952 576.344 445.758 575.903 440.1C575.892 439.962 575.814 438.948 575.815 438.944C575.905 438.665 578.399 436.836 578.83 436.454C581.041 434.496 583.399 432.228 585.282 429.947C591.148 422.841 594.173 413.746 595.251 404.713C595.558 402.133 595.939 399.484 595.695 396.886C595.291 392.585 594.805 387.791 593.715 383.605C591.912 376.679 588.857 370.412 586.015 363.886C582.696 356.268 579.438 348.204 574.753 341.307C572.415 337.865 569.756 334.812 566.581 332.118C564.358 330.232 562.624 329.116 559.741 328.623L559.223 328.541C558.679 323.755 558.726 318.817 557.757 314.087C557.344 312.074 557.208 310.07 556.597 308.093C552.92 296.192 546.528 285.212 536.824 277.189L533.611 274.599C527.363 269.958 518.693 265.224 510.872 264.237C506.134 263.639 500.749 264.119 496.043 264.787L494.755 259.769C494.115 257.759 493.49 255.593 492.452 253.744C490.303 249.916 487.673 246.303 484.552 243.198L484.125 242.778C482.218 240.864 479.764 238.79 477.512 237.314C467.823 230.964 459.134 225.283 447.938 221.78L444.938 221.031C443.361 220.598 441.814 220.61 440.25 220.264C437.656 219.691 434.991 220.211 432.679 218.642L432.366 218.418C431.163 218.483 429.731 218.682 428.61 218.162L428.011 217.858C428.686 217.58 429.21 217.424 429.933 217.389C430.527 217.361 431.044 217.301 431.627 217.163L431.918 216.223C430.297 211.597 429.161 206.861 427.359 202.27C425.88 198.503 423.697 195.05 421.536 191.655C415.938 182.864 406.433 178.596 397 175.342C394.466 174.467 391.702 173.47 390.154 171.267ZM150.889 455.911C153.02 461.694 155.207 467.183 158.224 472.584C158.609 473.273 159.607 475.396 160.222 475.748C160.932 475.833 161.668 476.07 162.373 476.219C162.881 475.332 163.152 470.366 162.943 469.345L161.436 470.985C160.099 469.648 160.303 469.464 160.268 467.538L159.185 466.226C159.748 464.896 160.408 463.765 161.22 462.571L163.152 462.795L163.944 462.119C164.355 462.517 164.65 462.841 164.949 463.338L165.188 463.761L165.688 462.827L165.478 462.174L165.668 461.621C160.701 459.66 156.406 456.815 152.438 453.282L152.159 453.638L153.188 454.644L150.889 455.911Z"/>
	<path fill="#D1EBF1" fill-opacity="0.74901962" transform="scale(0.690104 0.675781)" d="M150.889 455.911L153.188 454.644L152.159 453.638L152.438 453.282C156.406 456.815 160.701 459.66 165.668 461.621L165.478 462.174L165.688 462.827L165.188 463.761L164.949 463.338C164.65 462.841 164.355 462.517 163.944 462.119L163.152 462.795L161.22 462.571C160.408 463.765 159.748 464.896 159.185 466.226L160.268 467.538C160.303 469.464 160.099 469.648 161.436 470.985L162.943 469.345C163.152 470.366 162.881 475.332 162.373 476.219C161.668 476.07 160.932 475.833 160.222 475.748C159.607 475.396 158.609 473.273 158.224 472.584C155.207 467.183 153.02 461.694 150.889 455.911Z"/>
	<path fill="#FAF0F0" transform="scale(0.690104 0.675781)" d="M206.627 456.891C206.47 455.17 206.801 453.406 207.188 451.766C207.434 450.721 207.19 449.157 207.214 448.052C207.238 446.94 207.697 445.371 207.938 444.265C208.108 443.482 207.772 442.783 208.137 442.004C208.719 440.761 208.32 438.734 208.891 437.489C209.634 435.87 209.394 433.506 210.012 431.79C210.262 431.096 210.158 431.536 210.303 430.748L210.491 429.834L210.601 429.446L210.941 428.134C211.511 426.396 211.856 424.629 212.441 422.883C212.627 422.329 212.829 421.964 212.936 421.372C213.012 420.952 213.045 420.468 213.214 420.07C213.464 419.481 213.745 419.099 213.865 418.453C213.972 417.881 213.869 418.138 214.114 417.646C214.402 417.067 214.262 417.429 214.5 416.72L215.639 413.708C215.969 412.787 216.402 411.966 216.763 411.07C217.18 410.037 217.563 409.068 218.07 408.068L218.627 406.945C219.199 405.489 219.917 404.395 220.608 403.006L221.832 400.567C222.87 398.968 223.762 397.262 224.823 395.671L225.188 395.132C225.772 394.215 226.496 393.417 227.062 392.506C227.758 391.388 228.892 390.414 229.502 389.317C229.94 388.528 230.606 388.134 231.002 387.441C231.532 386.513 232.38 386.027 232.877 385.191C233.899 383.47 235.595 382.061 237.043 380.618C240.138 377.535 243.329 374.365 246.938 371.878C247.837 371.258 248.692 370.576 249.598 369.972L250.125 369.631L251.627 368.695L252.75 368.127C253.184 367.862 253.344 367.614 253.853 367.478C254.456 367.317 254.104 367.455 254.778 367.119L257.262 366.053L260.053 365.12C260.049 362.136 259.992 359.132 260.078 356.15C260.095 355.558 260.443 355.231 260.458 354.654C260.486 353.629 260.234 352.168 260.646 351.24C260.986 350.472 260.678 349.742 261.022 348.974C261.316 348.314 261.121 347.718 261.38 347.026C261.985 345.408 262.153 343.533 262.699 341.871L264.025 337.933C264.242 337.258 264.457 336.657 264.774 336.023L265.127 335.308L265.691 333.805L266.255 332.682C266.634 331.775 266.943 330.941 267.39 330.057L269.263 326.681C270.672 324.101 272.264 321.787 273.938 319.369C274.645 318.347 275.524 317.395 276.188 316.369C276.611 315.713 276.86 315.33 277.439 314.76L278.252 313.929C278.89 312.844 279.876 312.293 280.502 311.304C281.66 309.472 283.125 308.307 284.812 306.992C286.383 305.769 287.687 303.981 289.407 302.947C290.021 302.578 290.433 302.18 291 301.749C291.285 301.533 291.593 301.345 291.865 301.112C292.387 300.665 292.873 300.242 293.449 299.859C296.276 297.975 299.835 295.199 303.012 294.048L304.5 293.49L308.627 291.814L309.375 291.615C310.115 291.316 310.636 291.008 311.437 290.865L314.438 290.114C315.168 289.867 315.59 289.895 316.312 289.739C317.351 289.516 318.305 289.56 319.312 289.364C322.342 288.776 325.729 289.17 328.875 289.103C329.944 289.08 331.866 288.77 332.811 289.191C334.071 289.753 335.697 288.981 336.945 289.561C337.712 289.918 338.428 289.58 339.197 289.938C339.781 290.21 340.245 290.135 340.875 290.114C341.367 289.378 341.769 288.746 341.931 287.861C342.18 286.5 342.761 285.25 343.14 283.924C343.434 282.895 343.97 282.031 344.263 281.004C344.523 280.093 344.336 280.592 344.738 279.669L345.013 279.048C345.45 277.863 346.044 276.832 346.511 275.673C347.159 274.065 347.834 272.181 348.864 270.773C349.377 270.072 349.618 269.262 350.083 268.545C350.604 267.741 351.039 266.902 351.565 266.107L354.562 261.61C355.262 260.495 356.386 259.516 357.002 258.42C357.431 257.656 358.134 257.215 358.502 256.545C359.034 255.576 358.318 256.33 359.023 255.624L367.125 246.63L367.358 246.228C368.888 245.601 369.748 243.815 371.062 242.877C372.604 241.776 373.946 240.547 375.377 239.298C378.968 236.162 383.548 232.915 387.752 230.671L390.564 229.074L398.438 225.229L399.375 224.861L402.939 223.361L406.877 222.045L408.002 221.671C408.624 221.408 409.007 221.148 409.688 221.025C410.506 220.877 410.013 221.017 410.826 220.745L413.437 219.988C413.969 219.793 414.372 219.627 414.939 219.526L416.438 219.228C417.7 218.769 418.901 218.747 420.188 218.478C421.711 218.158 423.235 218.402 424.688 218.103C425.975 217.837 426.669 217.753 428.011 217.858L428.61 218.162C429.731 218.682 431.163 218.483 432.366 218.418L432.679 218.642C434.991 220.211 437.656 219.691 440.25 220.264C441.814 220.61 443.361 220.598 444.938 221.031L447.938 221.78C459.134 225.283 467.823 230.964 477.512 237.314C479.764 238.79 482.218 240.864 484.125 242.778L484.552 243.198C487.673 246.303 490.303 249.916 492.452 253.744C493.49 255.593 494.115 257.759 494.755 259.769L496.043 264.787C500.749 264.119 506.134 263.639 510.872 264.237C518.693 265.224 527.363 269.958 533.611 274.599L536.824 277.189C546.528 285.212 552.92 296.192 556.597 308.093C557.208 310.07 557.344 312.074 557.757 314.087C558.726 318.817 558.679 323.755 559.223 328.541L559.741 328.623C562.624 329.116 564.358 330.232 566.581 332.118C569.756 334.812 572.415 337.865 574.753 341.307C579.438 348.204 582.696 356.268 586.015 363.886C588.857 370.412 591.912 376.679 593.715 383.605C594.805 387.791 595.291 392.585 595.695 396.886C595.939 399.484 595.558 402.133 595.251 404.713C594.173 413.746 591.148 422.841 585.282 429.947C583.399 432.228 581.041 434.496 578.83 436.454C578.399 436.836 575.905 438.665 575.815 438.944C575.814 438.948 575.892 439.962 575.903 440.1C576.344 445.758 577.429 450.952 576.299 456.638C574.454 465.92 569.412 475.032 561.375 480.366C559.407 481.673 557.287 482.818 555 483.434L554.476 483.58C553.208 483.925 552.012 484.108 550.708 484.253C550.237 484.306 549.855 484.392 549.401 484.5C547.314 484.998 540.604 483.243 539.418 483.952C539.085 484.151 538.267 485.689 538.02 486.081L537.629 486.74C535.48 490.315 531.817 494.244 528.42 496.637C524.093 499.684 519.563 501.891 514.303 502.784C512.443 503.099 510.521 503.129 508.689 503.575C506.673 504.066 503.656 503.864 501.657 503.37C499.947 502.947 497.792 503.146 496.021 503.122L495.715 503.76L491.882 510.177C490.303 512.682 487.449 515.342 485.062 517.09L484.648 517.428C481.142 520.195 477.072 521.912 472.967 523.553C469.896 524.781 466.449 525.208 463.245 525.968C460.123 526.709 457.047 526.543 453.938 526.912C452.113 527.129 451.087 527.231 449.25 526.893C448.078 526.677 446.718 526.889 445.513 526.775C442.467 526.486 439.268 525.697 436.312 524.931C434.935 524.573 433.42 524.001 432.002 523.997C431.392 524.719 430.884 525.418 430.365 526.212C427.53 530.558 423.965 535.671 419.653 538.629C414.971 541.84 410.799 544.496 405.375 546.424C401.661 547.744 397.833 548.966 393.939 549.656C391.518 550.085 389.062 550.131 386.649 550.687C385.066 551.052 383.089 550.894 381.455 550.912C377.9 550.951 374.397 550.965 370.875 550.433C369.235 550.186 367.637 550.028 366 549.728C364.471 549.448 363.023 549.359 361.5 548.983C356.827 547.83 352.375 546.748 347.799 545.202C343.428 543.727 338.812 541.595 334.875 539.201L330.978 536.909C328.659 535.542 326.484 533.75 324.375 532.079C321.213 529.574 317.893 527.05 315.528 523.775C313.878 521.49 311.63 519.613 310.123 517.213C309.601 516.381 309.072 515.588 308.438 514.835C305.859 515.227 303.2 516.74 300.708 517.636C297.715 518.712 294.285 518.954 291.14 519.28C288.291 519.577 286.363 519.93 283.5 519.363L278.623 518.768C277.654 518.632 276.931 518.485 276 518.18L275.248 518.009C272.642 517.294 270.299 516.312 267.797 515.324C265.886 514.57 263.825 513.335 262.125 512.184L257.895 509.097C256.495 508.099 254.854 506.544 253.621 505.363C253.319 505.074 252.634 504.208 252.284 504.039C251.337 503.581 248.117 503.897 246.75 503.626C245.923 503.462 244.967 503.362 244.125 503.222C243.303 503.085 242.856 503.121 242.063 502.838L237.934 501.646L237.502 501.498L234.69 500.305L230.795 498.27C229.744 497.659 228.805 497.098 227.809 496.395L227.25 496.024C223.534 493.361 218.888 489.516 216.351 485.722C214.999 483.7 213.701 481.717 212.387 479.67C212.065 479.17 211.932 478.778 211.742 478.227C211.313 476.988 210.592 475.865 210.128 474.641C208.615 470.644 207.293 465.79 207.105 461.514C207.061 460.51 207.383 457.325 206.627 456.891Z"/>
	<path transform="scale(0.690104 0.675781)" d="M393.01 399.629L395.25 399.458C397.882 399.716 398.313 403.872 399.665 405.707C400.951 407.453 403.189 408.222 405.273 408.404C409.842 408.804 411.455 406.342 413.223 402.761C413.681 401.833 414.236 400.448 415.127 399.853C416.269 399.09 417.031 399.389 418.312 399.521C419.136 400.044 419.864 400.505 420.266 401.433C420.996 403.122 420.485 404.279 419.843 405.883C418.527 407.722 416.759 409.601 414.887 410.883C410.876 413.63 405.973 414.391 401.25 413.336C397.37 412.469 393.468 409.737 391.372 406.312C390.59 405.035 390.217 403.33 390.628 401.865C390.981 400.606 391.944 400.185 393.01 399.629Z"/>
	<path transform="scale(0.690104 0.675781)" d="M444.321 412.756C445.628 412.939 446.598 413.221 447.562 414.171C448.585 415.178 449.316 416.673 449.185 418.132C448.97 420.521 447.295 422.987 445.414 424.394C444.029 425.431 443.223 425.337 441.556 425.053L441.188 424.987C439.865 425.547 439.554 427.539 439.008 428.85C437.308 432.933 434.617 435.995 431.326 438.902C424.275 445.131 412.154 448.889 402.767 448.156C391.174 447.252 379.731 442.815 371.997 433.759C370.238 431.701 369.355 428.948 367.688 427.035L365.812 427.287C364.527 426.843 363.822 426.479 362.86 425.508C362.433 424.831 362.293 424.208 362.082 423.445C362.721 420.346 364.612 418.649 366.773 416.515L370.488 417.536C371.918 417.953 372.545 418.342 373.276 419.655C373.271 420.753 373.058 421.511 372.678 422.542L372.538 422.911L373.28 424.592C377.476 432.641 384.499 438.377 393.188 441.037C402.234 443.806 412.872 442.593 421.17 438.079C428.181 434.265 432.601 427.919 434.879 420.399L440.105 420.815C440.216 419.2 440.289 417.051 440.938 415.554C441.529 414.188 442.682 413.422 444.01 412.878L444.321 412.756Z"/>
	<path fill="#F7CDDB" transform="scale(0.690104 0.675781)" d="M462.723 413.991C470.256 416.8 478.372 417.172 485.953 414.217C488.908 417.135 492.786 418.27 495.47 421.758C498.069 425.134 499.185 429.478 498.565 433.706L498.469 434.322C497.911 438.099 496.592 440.929 493.954 443.695C489.055 448.834 482.413 451.151 475.401 451.204C469.672 451.248 463.817 448.728 459.778 444.699C455.925 440.856 454.107 435.641 454.121 430.262C454.134 425.542 455.82 420.48 459.249 417.163L462.723 413.991Z"/>
	<path fill="#F7CDDB" transform="scale(0.690104 0.675781)" d="M530.097 414.583C535.72 414.471 541.23 415.918 545.924 419.057C549.988 421.775 553.397 426.214 554.3 431.075C555.175 435.782 554.662 440.304 551.781 444.288C547.626 450.034 540.696 451.64 534.092 452.674C527.601 453.148 522.021 453.586 516.562 449.214C512.908 446.288 510.375 441.882 509.863 437.203C509.318 432.219 511.196 426.432 514.367 422.599C518.44 417.677 523.816 415.189 530.097 414.583Z"/>
	<path fill="#F7CDDB" transform="scale(0.690104 0.675781)" d="M299.934 420.523C307.029 419.643 316.46 421.177 322.503 425.164C327.013 428.14 329.83 432.61 330.868 437.878C331.914 443.179 330.9 448.97 327.786 453.424C324.339 458.354 319.625 460.858 313.845 461.99C306.333 463.182 298.627 461.912 292.225 457.715C288.021 454.959 284.461 450.411 283.47 445.415L283.364 444.839C282.407 439.865 283.16 434.003 285.793 429.634C289.016 424.287 294.183 422.063 299.934 420.523Z"/>
	<path transform="scale(0.690104 0.675781)" d="M462.723 413.991C453.923 409.239 448.508 402.298 445.691 392.702C443.117 383.938 443.827 374.392 448.234 366.345C451.276 360.792 456.337 356.282 462.483 354.506C470.635 352.151 479.813 353.279 487.226 357.404C494.351 361.369 499.481 368.7 501.62 376.469C503.996 385.098 502.997 395.373 498.499 403.163C495.579 408.22 491.221 411.774 485.953 414.217C478.372 417.172 470.256 416.8 462.723 413.991Z"/>
	<path fill="white" transform="scale(0.690104 0.675781)" d="M452.353 368.715C453.166 368.601 454.102 368.424 454.917 368.566C456.16 368.781 457.604 370.033 458.24 371.084C459.005 372.349 458.78 373.821 458.383 375.161C457.377 376.346 456.496 376.72 455.062 377.279C454.541 377.358 454.057 377.406 453.53 377.337C451.938 377.13 450.877 376.407 449.927 375.138C449.498 374.565 448.546 372.997 448.748 372.281C449.229 370.573 450.95 369.588 452.353 368.715Z"/>
	<path fill="white" transform="scale(0.690104 0.675781)" d="M482.764 366.248C483.828 366.042 484.86 365.973 485.93 366.182C487.968 366.581 490.059 367.938 491.119 369.748C492.041 371.323 492.357 373.633 491.857 375.389C491.313 377.295 489.355 378.872 487.667 379.751C486.193 380.137 484.726 380.177 483.268 379.674C481.34 379.009 479.397 377.507 478.534 375.622C477.748 373.907 477.912 371.492 478.639 369.779C479.39 368.012 481.067 366.954 482.764 366.248Z"/>
	<path transform="scale(0.690104 0.675781)" d="M310.487 373.855L310.617 373.27C311.865 367.793 316.151 363.655 320.797 360.766C326.926 356.956 335.218 355.425 342.256 357.144C349.329 358.872 356.107 363.715 359.841 369.999C364.96 378.617 366.09 390.897 363.538 400.501C361.37 408.657 356.959 416.133 349.472 420.417C342.835 424.214 335.994 425.123 328.658 423.079C321.168 420.993 315.233 415.08 311.648 408.375C307.036 399.749 305.14 388.499 307.967 379C308.422 377.47 309.071 375.898 310.059 374.643L310.259 374.587L310.487 373.855Z"/>
	<path fill="white" transform="scale(0.690104 0.675781)" d="M310.487 373.855C311.581 372.711 312.687 371.776 314.339 371.657C316.2 371.523 317.916 372.656 319.202 373.885C319.65 375.037 320.004 375.682 319.536 376.938C319.128 378.029 318.121 378.851 317.062 379.268C315.849 379.744 314.916 379.72 313.76 379.116C312.323 378.364 310.724 376.972 310.24 375.392L310.059 374.643L310.259 374.587L310.487 373.855Z"/>
	<path fill="white" transform="scale(0.690104 0.675781)" d="M344.847 368.874C345.97 368.663 346.862 368.683 347.974 368.988C350.1 369.571 352.189 370.742 353.278 372.73C354.187 374.392 354.201 376.496 353.558 378.25C352.523 381.072 350.908 381.969 348.306 383.126C346.676 383.199 344.709 382.983 343.166 382.484C341.645 381.992 340.664 380.839 340.021 379.403C339.246 377.674 339.174 375.09 339.908 373.328C340.745 371.319 342.923 369.717 344.847 368.874Z"/>
</svg>
