<?xml version="1.0" encoding="utf-8" ?>
<svg xmlns="http://www.w3.org/2000/svg" xmlns:xlink="http://www.w3.org/1999/xlink" width="512" height="512">
	<path transform="scale(0.666667 0.666667)" d="M384.943 89.7187L386.625 89.9816L389.25 90.4457C393.084 91.3522 396.349 93.5355 399.024 96.3742C404.192 101.859 408.01 108.525 411.888 114.938C420.628 129.392 428.81 144.357 436.145 159.562C440.179 167.924 444.79 176.083 449.008 184.362C457.574 201.169 465.901 218.118 474.196 235.057C477.209 241.209 480.32 247.395 483.259 253.589C484.857 256.957 486.239 260.806 488.172 263.973C488.603 264.68 489.683 267.249 490.172 267.656C490.843 268.214 531.076 270.586 535.405 270.916C578.822 274.226 622.09 276.875 665.294 282.547C672.318 283.469 679.277 284.59 686.262 285.769C691.522 286.656 697.295 287.322 702.188 289.581C705.707 291.206 707.553 293.84 708.842 297.375C709.53 299.261 709.448 301.586 709.464 303.576C709.533 312.145 707.234 318.795 702.763 326.088C698.265 333.426 692.497 339.37 686.813 345.75C676.43 357.407 665.469 367.798 654.086 378.425C631.234 399.757 607.327 419.675 583.443 439.823C579.127 443.464 574.772 447.052 570.393 450.616C567.55 452.928 563.115 455.724 561.504 459C562.72 463.606 563.028 468.721 563.88 473.455C566.648 488.85 569.205 504.276 571.476 519.75C572.175 524.51 573.286 529.275 573.976 534.035C576.982 554.77 580.574 575.441 583.612 596.179C584.348 601.199 585.389 606.274 585.971 611.306C586.877 619.138 587.557 627.03 588.228 634.895C588.415 637.085 588.883 639.235 589.008 641.438C589.319 646.894 589.238 652.431 589.253 657.899C589.262 660.934 589.514 664.308 589.063 667.312C588.28 672.519 586.41 678.249 581.9 681.375C578.318 683.858 574.851 684.175 570.63 684.148C561.751 684.089 554.114 681.528 545.812 678.772C529.761 673.445 514.302 665.194 499.689 656.741C474.343 642.08 450.167 625.322 426.375 608.278C419.331 603.232 412.439 597.988 405.441 592.881C398.534 587.839 391.827 581.393 383.169 579.706C380.846 580.22 378.749 580.745 376.669 581.958C373.208 583.975 370.116 586.593 366.934 589.005C363.138 591.882 359.272 594.655 355.499 597.562C345.11 605.57 334.405 613.305 323.74 620.944C299.425 638.36 274.654 655.293 247.835 668.642C238.787 673.146 229.671 677.519 219.961 680.438C210.852 683.176 196.478 687.049 187.688 681.977C183.11 679.336 181.089 673.57 180.376 668.616C178.734 657.208 180.325 644.847 181.4 633.435C181.682 630.451 181.709 627.451 182.031 624.469C184.477 601.806 188.264 579.325 191.855 556.827C194.285 541.605 196.942 526.408 199.267 511.17C200.789 501.196 202.041 491.184 203.623 481.215C204.621 474.927 205.421 468.658 206.256 462.353C206.334 461.77 207.101 457.795 206.945 457.459C206.582 456.682 202.791 454.459 201.89 453.78C198.498 451.221 195.172 448.496 191.916 445.767C183.371 438.606 174.981 431.211 166.378 424.118C141.583 403.675 117.011 383.273 94.2116 360.562C84.0119 350.402 73.4676 339.91 65.5346 327.832C62.3327 322.958 59.7927 317.351 58.4739 311.664C57.1249 305.848 56.7715 299.516 60.2063 294.289C62.5336 290.747 66.5623 289.482 70.4135 288.293C73.7008 287.278 76.9862 286.952 80.3421 286.367C86.3177 285.326 92.2469 284.36 98.25 283.491C137.371 277.827 176.56 274.272 215.999 271.698C219.446 271.473 222.913 271.655 226.362 271.459C229.73 271.267 233.085 270.794 236.457 270.577C245.154 270.017 253.855 269.705 262.559 269.066C268.405 268.637 274.152 268.601 279.937 267.549C281.267 264.975 282.267 262.176 283.523 259.548C288.112 249.943 292.523 240.282 297 230.625C303.997 215.53 311.34 200.596 318.568 185.61C328 166.057 337.34 146.503 348.548 127.873C352.549 121.222 357.026 114.749 361.452 108.375C367.725 99.34 373.503 91.7505 384.943 89.7187ZM385.405 97.7956C383.967 97.4372 383.157 98.0741 381.926 98.8003C377.296 101.532 373.506 107.344 370.312 111.593C360.331 124.872 352.515 139.366 344.871 154.06C339.309 164.751 333.727 175.445 328.341 186.226C317.914 207.097 309.16 228.746 298.682 249.606C295.066 256.804 291.482 264.845 286.687 271.339C285.348 273.154 283.587 274.866 281.709 276.112C273.117 279.083 264.45 278.808 255.47 279.271C248.832 279.612 242.196 280.108 235.553 280.46C221.439 281.208 207.318 282.123 193.214 283.072C189.217 283.341 185.219 283.464 181.22 283.685C179.466 283.782 177.505 283.721 175.8 284.113C159.989 285.537 72.5553 292.409 66.171 300.633C65.176 301.914 65.4173 305.131 65.7941 306.635C66.0252 307.558 66.4507 308.47 66.8663 309.323C67.1265 311.854 69.2904 315.386 70.4836 317.625C75.4171 326.884 82.4616 335.054 89.5332 342.747C93.644 347.219 97.77 351.706 102.111 355.957C114.336 367.927 127.211 379.134 140.165 390.298C151.001 399.637 161.84 408.995 172.872 418.102C185.809 428.782 199.112 439.08 211.507 450.4C212.988 451.752 216.171 454.608 216.663 456.642C217.142 458.625 216.691 461.639 216.474 463.688C215.787 470.165 214.286 476.562 213.392 483.021C210.064 507.065 206.123 531.007 202.408 555C197.292 588.044 191.084 620.922 189.339 654.375C189.103 658.902 188.881 663.35 189.334 667.875C189.485 669.381 189.573 671.103 190.112 672.527C190.631 673.9 191.859 674.615 193.173 675.109C199.185 677.37 208.342 674.195 214.251 672.449C235.955 666.035 255.409 654.484 274.43 642.478C295.53 629.161 315.631 614.767 335.646 599.895C342.635 594.702 349.665 589.582 356.7 584.454C362.12 580.504 367.62 576.008 373.73 573.203C379.994 570.328 385.801 569.906 392.209 572.624C400.021 575.937 406.872 581.955 413.659 586.978C419.348 591.188 425.149 595.257 430.896 599.389C458.449 619.202 486.136 638.856 516.023 655.05C526.259 660.596 536.769 666.089 547.695 670.134C555.428 672.998 563.058 674.883 571.339 674.983C573.011 675.004 575.443 675.177 576.962 674.355C580.268 672.568 580.34 666.392 580.453 663.031C580.564 659.753 580.106 656.359 579.932 653.081C579.234 639.886 577.646 626.74 575.954 613.64C570.568 571.938 562.787 530.655 556.283 489.126C555.362 483.242 554.43 477.356 553.445 471.483C552.765 467.432 551.433 462.76 551.911 458.681C552.173 456.452 553.671 454.705 555.117 453.078C557.662 450.214 560.792 447.64 563.639 445.073C570.125 439.225 576.862 433.637 583.503 427.965C605.449 409.219 627.586 390.84 648.765 371.21C659.971 360.822 671.151 350.365 681.296 338.924C689.181 330.033 697.09 320.149 700.91 308.732C701.802 306.068 703.028 302.883 701.566 300.252C700.683 298.662 699.104 297.973 697.461 297.394C694.112 296.212 690.318 295.754 686.813 295.14C679.45 293.849 672.061 292.812 664.652 291.835C620.632 286.031 576.314 283.505 532.027 280.692C522.926 280.113 513.823 279.523 504.727 278.876C499.663 278.516 494.563 278.8 489.644 277.327C485.545 276.1 482.91 272.756 480.671 269.319C477.56 264.545 475.04 259.273 472.414 254.218C466.392 242.625 460.817 230.809 455.062 219.084C440.176 188.751 425.273 158.315 408.682 128.871C406.19 124.448 403.494 120.128 400.891 115.768C397.767 110.536 392.323 98.9687 386.062 97.2149L385.405 97.7956Z"/>
	<path fill="#FBF6A6" transform="scale(0.666667 0.666667)" d="M385.405 97.7956L386.062 97.2149C392.323 98.9687 397.767 110.536 400.891 115.768C403.494 120.128 406.19 124.448 408.682 128.871C425.273 158.315 440.176 188.751 455.062 219.084C460.817 230.809 466.392 242.625 472.414 254.218C475.04 259.273 477.56 264.545 480.671 269.319C482.91 272.756 485.545 276.1 489.644 277.327C494.563 278.8 499.663 278.516 504.727 278.876C513.823 279.523 522.926 280.113 532.027 280.692C576.314 283.505 620.632 286.031 664.652 291.835C672.061 292.812 679.45 293.849 686.813 295.14C690.318 295.754 694.112 296.212 697.461 297.394C699.104 297.973 700.683 298.662 701.566 300.252C703.028 302.883 701.802 306.068 700.91 308.732C697.09 320.149 689.181 330.033 681.296 338.924C671.151 350.365 659.971 360.822 648.765 371.21C627.586 390.84 605.449 409.219 583.503 427.965C576.862 433.637 570.125 439.225 563.639 445.073C560.792 447.64 557.662 450.214 555.117 453.078C553.671 454.705 552.173 456.452 551.911 458.681C551.433 462.76 552.765 467.432 553.445 471.483C554.43 477.356 555.362 483.242 556.283 489.126C562.787 530.655 570.568 571.938 575.954 613.64C577.646 626.74 579.234 639.886 579.932 653.081C580.106 656.359 580.564 659.753 580.453 663.031C580.34 666.392 580.268 672.568 576.962 674.355C575.443 675.177 573.011 675.004 571.339 674.983C563.058 674.883 555.428 672.998 547.695 670.134C536.769 666.089 526.259 660.596 516.023 655.05C486.136 638.856 458.449 619.202 430.896 599.389C425.149 595.257 419.348 591.188 413.659 586.978C406.872 581.955 400.021 575.937 392.209 572.624C385.801 569.906 379.994 570.328 373.73 573.203C367.62 576.008 362.12 580.504 356.7 584.454C349.665 589.582 342.635 594.702 335.646 599.895C315.631 614.767 295.53 629.161 274.43 642.478C255.409 654.484 235.955 666.035 214.251 672.449C208.342 674.195 199.185 677.37 193.173 675.109C191.859 674.615 190.631 673.9 190.112 672.527C189.573 671.103 189.485 669.381 189.334 667.875C188.881 663.35 189.103 658.902 189.339 654.375C191.084 620.922 197.292 588.044 202.408 555C206.123 531.007 210.064 507.065 213.392 483.021C214.286 476.562 215.787 470.165 216.474 463.688C216.691 461.639 217.142 458.625 216.663 456.642C216.171 454.608 212.988 451.752 211.507 450.4C199.112 439.08 185.809 428.782 172.872 418.102C161.84 408.995 151.001 399.637 140.165 390.298C127.211 379.134 114.336 367.927 102.111 355.957C97.77 351.706 93.644 347.219 89.5332 342.747C82.4616 335.054 75.4171 326.884 70.4836 317.625C69.2904 315.386 67.1265 311.854 66.8663 309.323C66.4507 308.47 66.0252 307.558 65.7941 306.635C65.4173 305.131 65.176 301.914 66.171 300.633C72.5553 292.409 159.989 285.537 175.8 284.113C177.505 283.721 179.466 283.782 181.22 283.685C185.219 283.464 189.217 283.341 193.214 283.072C207.318 282.123 221.439 281.208 235.553 280.46C242.196 280.108 248.832 279.612 255.47 279.271C264.45 278.808 273.117 279.083 281.709 276.112C283.587 274.866 285.348 273.154 286.687 271.339C291.482 264.845 295.066 256.804 298.682 249.606C309.16 228.746 317.914 207.097 328.341 186.226C333.727 175.445 339.309 164.751 344.871 154.06C352.515 139.366 360.331 124.872 370.312 111.593C373.506 107.344 377.296 101.532 381.926 98.8003C383.157 98.0741 383.967 97.4372 385.405 97.7956ZM462.911 328.575C450.666 330.769 440.978 337.856 433.909 347.985C427.396 357.316 424.526 369.796 426.705 381.047C428.847 392.113 434.798 401.513 444.261 407.772C449.617 411.315 456.165 414.396 462.656 414.835C471.688 415.204 479.708 413.218 486.45 406.905C494.99 398.908 498.196 387.226 498.464 375.844C498.768 362.922 498.246 347.64 488.727 337.692C483.227 331.945 474.758 328.72 466.875 328.499L462.911 328.575ZM308.06 328.545C294.883 331.617 282.17 339.451 274.981 351.188C269.063 360.848 264.854 374.124 267.274 385.5C269.301 395.024 274.189 402.899 282.366 408.386C286.579 411.213 290.828 412.4 295.683 413.524C306.125 413.709 314.679 412.055 322.433 404.562C332.276 395.05 336.663 380.532 336.748 367.082C336.818 355.896 334.397 342.752 326.204 334.51C322.184 330.465 317.028 328.453 311.363 328.489L308.06 328.545ZM281.709 276.112L279.938 278.338L280.125 278.849C283.866 278.199 286.105 275.941 289.082 273.759L289.058 273.724C302.867 255.686 311.58 234.202 322.698 214.507C337.933 187.518 354.652 161.449 369.125 134.02C375.218 122.474 381.819 110.379 385.405 97.7956C383.967 97.4372 383.157 98.0741 381.926 98.8003C377.296 101.532 373.506 107.344 370.312 111.593C360.331 124.872 352.515 139.366 344.871 154.06C339.309 164.751 333.727 175.445 328.341 186.226C317.914 207.097 309.16 228.746 298.682 249.606C295.066 256.804 291.482 264.845 286.687 271.339C285.348 273.154 283.587 274.866 281.709 276.112ZM175.8 284.113C159.989 285.537 72.5553 292.409 66.171 300.633C65.176 301.914 65.4173 305.131 65.7941 306.635C66.0252 307.558 66.4507 308.47 66.8663 309.323C76.1155 305.391 86.5784 304.355 96.375 302.68C109.91 300.365 123.37 298.418 136.977 296.6C151.905 294.606 166.786 292.19 181.688 290.125L182.199 289.147C181.277 288.769 177.991 287.741 177.418 287.103C176.829 286.448 176.239 284.924 175.8 284.113Z"/>
	<path fill="#FAAADD" transform="scale(0.666667 0.666667)" d="M281.782 421.255C284.167 420.935 287.134 420.971 289.415 421.817C291.758 422.687 293.569 424.659 294.442 426.973C295.304 429.257 294.804 432.763 293.805 434.904C292.348 438.027 289.698 439.163 286.678 440.312C284.531 440.64 282.962 440.639 280.875 439.868C278.154 438.862 276.195 436.863 275.048 434.204C274.083 431.968 274.026 429.492 275.025 427.254C276.378 424.223 278.738 422.382 281.782 421.255Z"/>
	<path fill="#EEEDEC" transform="scale(0.666667 0.666667)" d="M286.774 426.938C287.835 427.023 288.064 427.668 288.741 428.438C288.946 429.186 289.174 429.832 289.041 430.613C288.819 431.906 287.853 433.213 286.755 433.952C285.366 434.889 284.075 434.737 282.562 434.368C282.156 434.234 282.023 434.214 281.619 433.945C280.924 433.483 280.041 432.729 279.938 431.91L284.438 432.184C285.745 432.115 286.213 431.571 287.059 430.688C287.097 429.383 287.006 428.222 286.774 426.938Z"/>
	<path fill="#FAAADD" transform="scale(0.666667 0.666667)" d="M489.71 421.232C492.078 421.113 494.995 421.083 497.25 421.903C499.531 422.733 501.286 424.254 502.229 426.501C503.275 428.992 503.288 431.438 502.249 433.921C500.897 437.153 498.261 438.636 495.219 439.942C492.129 440.68 489.765 440.921 486.83 439.392C484.318 438.083 482.418 435.42 481.691 432.725C481.025 430.254 481.498 427.819 482.864 425.695C484.475 423.187 486.884 421.923 489.71 421.232Z"/>
	<path fill="#EEEDEC" transform="scale(0.666667 0.666667)" d="M491.245 426.562C491.82 426.446 492.327 426.474 492.905 426.558C494.81 426.834 495.633 427.721 496.786 429.188C496.869 430.032 497.048 431.125 496.751 431.936C496.111 433.685 494.367 434.514 492.757 435.108C491.563 435.081 490.289 435.09 489.212 434.501C487.89 433.776 487.077 432.646 486.618 431.25C486.623 430.535 486.68 430.138 487.05 429.502C487.841 428.141 489.785 427.028 491.245 426.562Z"/>
	<path fill="#FBF7BF" transform="scale(0.666667 0.666667)" d="M281.709 276.112L279.938 278.338L280.125 278.849C283.866 278.199 286.105 275.941 289.082 273.759C287.381 277.225 282.777 280.285 279.188 281.582C278.662 281.772 278.223 281.788 277.688 281.919L276.75 282.265C275.33 282.798 273.881 282.847 272.426 283.21C267.998 284.312 263.132 283.534 258.75 284.441L257.438 284.614C255.3 284.897 252.828 285.17 250.721 285.211C248.001 285.265 245.236 284.956 242.625 285.717C240.216 286.42 237.432 285.799 234.938 286.316C232.904 286.738 230.509 286.479 228.375 286.798L226.877 286.942L226.126 287.013C224.477 287.163 223.05 287.155 221.438 287.441C220.244 287.653 219.076 287.415 217.875 287.747C216.377 288.162 214.752 287.841 213.187 288.191C211.727 288.518 210.054 288.28 208.5 288.584C206.278 289.019 203.804 288.872 201.544 289.004C200.276 289.078 198.976 289.392 197.622 289.446C196.254 289.5 193.775 289.473 192.581 289.922C190.883 290.561 188.642 289.836 186.844 290.319C185.843 290.587 184.593 290.455 183.559 290.438L183.538 289.33C183.046 289.21 182.713 289.152 182.199 289.147C181.277 288.769 177.991 287.741 177.418 287.103C176.829 286.448 176.239 284.924 175.8 284.113C177.505 283.721 179.466 283.782 181.22 283.685C185.219 283.464 189.217 283.341 193.214 283.072C207.318 282.123 221.439 281.208 235.553 280.46C242.196 280.108 248.832 279.612 255.47 279.271C264.45 278.808 273.117 279.083 281.709 276.112Z"/>
	<path transform="scale(0.666667 0.666667)" d="M440.192 434.438C440.629 434.349 440.872 434.248 441.299 434.322C442.229 434.483 443.215 435.2 443.788 435.925C444.635 436.998 444.931 438.008 444.671 439.371C444.249 441.581 442.777 443.675 441.562 445.531C437.122 452.315 431.613 458.286 424.756 462.688C409.226 472.656 389.447 474.247 371.742 470.365C355.397 466.782 342.023 458.51 332.915 444.306C332.284 443.101 331.548 441.836 331.197 440.513C330.99 439.73 330.834 438.427 331.308 437.738C331.928 436.837 332.98 435.873 334.109 435.744C334.809 435.663 334.982 435.756 335.517 436.233C337.347 437.867 338.661 440.883 340.035 442.926C342.723 446.922 346.291 450.53 350.081 453.484C363.461 463.915 381.707 467.471 398.299 465.411C412.685 463.625 425.351 455.985 433.98 444.395C436.252 441.343 437.606 437.667 439.971 434.705L440.192 434.438Z"/>
	<path transform="scale(0.666667 0.666667)" d="M308.06 328.545L311.363 328.489C317.028 328.453 322.184 330.465 326.204 334.51C334.397 342.752 336.818 355.896 336.748 367.082C336.663 380.532 332.276 395.05 322.433 404.562C314.679 412.055 306.125 413.709 295.683 413.524C290.828 412.4 286.579 411.213 282.366 408.386C274.189 402.899 269.301 395.024 267.274 385.5C264.854 374.124 269.063 360.848 274.981 351.188C282.17 339.451 294.883 331.617 308.06 328.545ZM282.162 373.891C280.258 374.877 278.45 375.893 277.711 378.055C276.715 380.969 277.214 384.606 278.714 387.239C279.734 389.031 281.686 390.812 283.688 391.39C284.94 391.751 286.526 391.551 287.812 391.452C290.175 390.163 291.385 388.869 292.345 386.309C293.118 384.247 292.593 380.501 291.595 378.628C290.554 376.675 288.754 374.912 286.595 374.313C285.146 373.91 283.654 373.895 282.162 373.891ZM284.726 351.938C282.481 353.258 280.139 355.017 279.507 357.686L279.354 358.5L279.202 359.131C278.966 361.108 280.073 363.718 281.437 365.097C282.708 366.381 285.19 367.527 287.039 367.466C287.415 367.453 287.507 367.39 287.812 367.263C290.414 365.835 292.31 364.582 293.135 361.531C293.797 359.084 293.619 356.761 292.325 354.552C291.638 353.38 290.456 352.241 289.119 351.875C287.955 351.555 285.86 351.517 284.726 351.938ZM310.817 334.492C308.758 335.414 307.011 335.928 306.218 338.23C305.411 340.574 305.604 343.188 306.795 345.386C307.932 347.487 309.866 348.692 312.137 349.23C312.985 349.431 313.584 349.512 314.44 349.277C316.633 348.263 318.471 347.473 319.401 345.051C320.084 343.269 320.188 341.192 319.335 339.446C318.369 337.469 316.514 335.545 314.38 334.877C313.233 334.518 312.007 334.513 310.817 334.492ZM315.582 384.938C314.243 385.602 313.149 386.123 312.587 387.614C311.868 389.526 311.763 391.854 312.782 393.684C313.44 394.867 314.916 395.933 316.22 396.28C317.072 396.506 318.117 396.354 318.974 396.188C320.47 395.301 322.075 394.268 322.584 392.49C323.014 390.986 323.191 388.656 322.279 387.287C321.282 385.791 319.728 385.051 318 384.727C317.158 384.569 316.387 384.658 315.582 384.938Z"/>
	<defs>
		<linearGradient id="gradient_0" gradientUnits="userSpaceOnUse" x1="282.93799" y1="366.18799" x2="290.79001" y2="352.896">
			<stop offset="0" stop-color="#F0EFEF" stop-opacity="0.0078431377"/>
			<stop offset="1" stop-color="#EDECEC" stop-opacity="0.050980393"/>
		</linearGradient>
	</defs>
	<path fill="url(#gradient_0)" transform="scale(0.666667 0.666667)" d="M284.726 351.938C285.86 351.517 287.955 351.555 289.119 351.875C290.456 352.241 291.638 353.38 292.325 354.552C293.619 356.761 293.797 359.084 293.135 361.531C292.31 364.582 290.414 365.835 287.812 367.263C287.507 367.39 287.415 367.453 287.039 367.466C285.19 367.527 282.708 366.381 281.437 365.097C280.073 363.718 278.966 361.108 279.202 359.131L279.354 358.5L279.507 357.686C280.139 355.017 282.481 353.258 284.726 351.938Z"/>
	<path fill="#EEEDEC" fill-opacity="0.090196081" transform="scale(0.666667 0.666667)" d="M284.803 378.188C286.921 378.829 288.049 380.629 289.312 382.308C289.376 382.98 289.382 383.437 289.231 384.106L288.988 385.301L288.941 385.688L287.812 385.444L286.326 386.812L285.908 386.325C285.061 386.601 284.026 386.896 283.125 386.886C281.792 386.87 281.402 386.199 280.559 385.312C280.808 384.092 280.823 382.285 281.284 381.188C282.033 379.404 283.191 378.995 284.803 378.188Z"/>
	<path transform="scale(0.666667 0.666667)" d="M462.911 328.575L466.875 328.499C474.758 328.72 483.227 331.945 488.727 337.692C498.246 347.64 498.768 362.922 498.464 375.844C498.196 387.226 494.99 398.908 486.45 406.905C479.708 413.218 471.688 415.204 462.656 414.835C456.165 414.396 449.617 411.315 444.261 407.772C434.798 401.513 428.847 392.113 426.705 381.047C424.526 369.796 427.396 357.316 433.909 347.985C440.978 337.856 450.666 330.769 462.911 328.575ZM438.816 385.547C439.708 386.936 440.545 387.975 441.811 389.04C443.51 390.337 445.25 391.378 447.468 391.033C449.137 390.773 450.221 390.141 451.544 389.122L452.266 388.449C454.404 386.148 454.758 383.066 454.505 380.084C454.223 376.761 452.304 374.666 449.865 372.666C447.369 371.498 445.8 371.155 443.062 371.322C440.594 372.767 438.36 374.503 437.678 377.426C437.039 380.161 437.703 383.046 438.816 385.547ZM461.202 337.553C458.155 338.375 454.972 339.41 453.212 342.26C452.014 344.199 451.841 346.663 452.462 348.829C453.119 351.118 455.391 353.372 457.492 354.42C458.585 354.965 459.881 355.22 461.062 355.51C464.455 354.657 466.916 352.882 468.721 349.875C469.819 348.046 469.931 344.913 469.312 342.887C468.701 340.882 467.474 339.424 465.583 338.522C464.29 337.907 462.638 337.448 461.202 337.553ZM437.924 352.688C436.178 353.7 434.604 354.787 433.963 356.812C433.471 358.368 433.937 359.695 434.802 361.039C435.67 362.389 436.88 363.246 438.456 363.584C439.268 363.758 440.126 363.661 440.945 363.583C442.68 362.555 444.879 361.328 445.483 359.25C445.867 357.93 445.393 356.067 444.642 354.95C443.987 353.978 442.381 352.62 441.188 352.519C440.148 352.43 438.945 352.471 437.924 352.688Z"/>
	<path fill="#EEEDEC" transform="scale(0.666667 0.666667)" d="M481.554 386.438C482.145 386.362 482.78 386.274 483.375 386.338C484.675 386.476 486.014 387.41 486.757 388.453C487.524 389.528 487.935 390.903 487.634 392.217C487.202 394.103 485.928 394.961 484.339 395.861C483.29 395.948 482.173 396.084 481.168 395.697C480.114 395.291 478.958 394.321 478.528 393.257C477.95 391.83 478.033 389.893 478.688 388.511C479.272 387.276 480.336 386.856 481.554 386.438Z"/>
	<path fill="#EEEDEC" fill-opacity="0.015686275" transform="scale(0.666667 0.666667)" d="M461.202 337.553C462.638 337.448 464.29 337.907 465.583 338.522C467.474 339.424 468.701 340.882 469.312 342.887C469.931 344.913 469.819 348.046 468.721 349.875C466.916 352.882 464.455 354.657 461.062 355.51C459.881 355.22 458.585 354.965 457.492 354.42C455.391 353.372 453.119 351.118 452.462 348.829C451.841 346.663 452.014 344.199 453.212 342.26C454.972 339.41 458.155 338.375 461.202 337.553Z"/>
	<path fill="#EBEAE9" fill-opacity="0.36862746" transform="scale(0.666667 0.666667)" d="M438.816 385.547C437.703 383.046 437.039 380.161 437.678 377.426C438.36 374.503 440.594 372.767 443.062 371.322C445.8 371.155 447.369 371.498 449.865 372.666C452.304 374.666 454.223 376.761 454.505 380.084C454.758 383.066 454.404 386.148 452.266 388.449L451.544 389.122C450.221 390.141 449.137 390.773 447.468 391.033C445.25 391.378 443.51 390.337 441.811 389.04C440.545 387.975 439.708 386.936 438.816 385.547ZM438.816 385.547L439.208 385.41C441.331 384.459 441.404 378.617 442.293 376.381C443.411 376.017 444.098 375.587 445.012 374.854L444.936 374.156L446.239 373.772L446.368 373.2L444.186 373.031C444.782 372.872 445.232 372.698 445.788 372.411L446.336 372.114C446.568 373.104 447.681 372.79 448.125 373.688L447.189 374.156L446.438 374.25L446.438 374.726C447.338 374.448 448.045 374.221 448.98 374.503L449.625 374.714L450.065 374.438L449.865 372.666C447.369 371.498 445.8 371.155 443.062 371.322C440.594 372.767 438.36 374.503 437.678 377.426C437.039 380.161 437.703 383.046 438.816 385.547ZM441.811 389.04C443.51 390.337 445.25 391.378 447.468 391.033C449.137 390.773 450.221 390.141 451.544 389.122C451.415 388.884 451.251 388.547 451.062 388.358C450.537 387.834 450.159 387.748 449.438 387.707L446.812 387.558C445.995 388.018 445.33 388.434 444.356 388.415L443.638 388.343L442.889 388.276L442.325 388.214L441.811 389.04Z"/>
	<path fill="#EEEDEC" fill-opacity="0.30980393" transform="scale(0.666667 0.666667)" d="M441.811 389.04L442.325 388.214L442.889 388.276L443.638 388.343L444.356 388.415C445.33 388.434 445.995 388.018 446.812 387.558L449.438 387.707C450.159 387.748 450.537 387.834 451.062 388.358C451.251 388.547 451.415 388.884 451.544 389.122C450.221 390.141 449.137 390.773 447.468 391.033C445.25 391.378 443.51 390.337 441.811 389.04Z"/>
	<path fill="#EEEDEC" fill-opacity="0.22745098" transform="scale(0.666667 0.666667)" d="M438.816 385.547C437.703 383.046 437.039 380.161 437.678 377.426C438.36 374.503 440.594 372.767 443.062 371.322C445.8 371.155 447.369 371.498 449.865 372.666L450.065 374.438L449.625 374.714L448.98 374.503C448.045 374.221 447.338 374.448 446.438 374.726L446.438 374.25L447.189 374.156L448.125 373.688C447.681 372.79 446.568 373.104 446.336 372.114L445.788 372.411C445.232 372.698 444.782 372.872 444.186 373.031L446.368 373.2L446.239 373.772L444.936 374.156L445.012 374.854C444.098 375.587 443.411 376.017 442.293 376.381C441.404 378.617 441.331 384.459 439.208 385.41L438.816 385.547Z"/>
</svg>
